<?xml version="1.0" encoding="UTF-8" standalone="no"?>
<!-- Created with Inkscape (http://www.inkscape.org/) -->

<svg
   xmlns:dc="http://purl.org/dc/elements/1.1/"
   xmlns:cc="http://creativecommons.org/ns#"
   xmlns:rdf="http://www.w3.org/1999/02/22-rdf-syntax-ns#"
   xmlns:svg="http://www.w3.org/2000/svg"
   xmlns="http://www.w3.org/2000/svg"
   xmlns:sodipodi="http://sodipodi.sourceforge.net/DTD/sodipodi-0.dtd"
   xmlns:inkscape="http://www.inkscape.org/namespaces/inkscape"
   width="300"
   height="300"
   viewBox="0 0 79.374996 79.375002"
   version="1.1"
   id="svg2822"
   inkscape:version="0.92.2 2405546, 2018-03-11"
   sodipodi:docname="audio-headphones-w-mic.svg"
   inkscape:export-filename="/home/bastian/Sync/VRAR Requirements Visualization/virtual-reality-icons repository/900px/audio-headphones-w-mic.png"
   inkscape:export-xdpi="288"
   inkscape:export-ydpi="288">
  <defs
     id="defs2816">
    <clipPath
       clipPathUnits="userSpaceOnUse"
       id="clipPath6262-7">
      <rect
         y="220.75"
         x="26.849981"
         height="6.3750005"
         width="3.8250003"
         id="rect6264-2"
         style="color:#bebebe;display:inline;overflow:visible;visibility:visible;fill:#bebebe;fill-opacity:1;fill-rule:nonzero;stroke:none;stroke-width:2;marker:none" />
    </clipPath>
    <clipPath
       clipPathUnits="userSpaceOnUse"
       id="clipPath6258-2">
      <rect
         y="221.28162"
         x="26.965673"
         height="5.3129687"
         width="2.8977275"
         id="rect6260-6"
         style="color:#bebebe;display:inline;overflow:visible;visibility:visible;fill:#bebebe;fill-opacity:1;fill-rule:nonzero;stroke:none;stroke-width:2;marker:none" />
    </clipPath>
    <clipPath
       clipPathUnits="userSpaceOnUse"
       id="clipPath6254-1">
      <rect
         y="221.50153"
         x="26.998718"
         height="4.8783236"
         width="1.876245"
         id="rect6256-0"
         style="color:#bebebe;display:inline;overflow:visible;visibility:visible;fill:#bebebe;fill-opacity:1;stroke:none;stroke-width:2;marker:none" />
    </clipPath>
    <clipPath
       clipPathUnits="userSpaceOnUse"
       id="clipPath6262-7-6">
      <rect
         y="220.75"
         x="26.849981"
         height="6.3750005"
         width="3.8250003"
         id="rect6264-2-2"
         style="color:#bebebe;display:inline;overflow:visible;visibility:visible;fill:#bebebe;fill-opacity:1;fill-rule:nonzero;stroke:none;stroke-width:2;marker:none" />
    </clipPath>
    <clipPath
       clipPathUnits="userSpaceOnUse"
       id="clipPath6258-2-9">
      <rect
         y="221.28162"
         x="26.965673"
         height="5.3129687"
         width="2.8977275"
         id="rect6260-6-1"
         style="color:#bebebe;display:inline;overflow:visible;visibility:visible;fill:#bebebe;fill-opacity:1;fill-rule:nonzero;stroke:none;stroke-width:2;marker:none" />
    </clipPath>
    <clipPath
       clipPathUnits="userSpaceOnUse"
       id="clipPath6254-1-2">
      <rect
         y="221.50153"
         x="26.998718"
         height="4.8783236"
         width="1.876245"
         id="rect6256-0-7"
         style="color:#bebebe;display:inline;overflow:visible;visibility:visible;fill:#bebebe;fill-opacity:1;stroke:none;stroke-width:2;marker:none" />
    </clipPath>
    <clipPath
       clipPathUnits="userSpaceOnUse"
       id="clipPath6262-7-6-9">
      <rect
         y="220.75"
         x="26.849981"
         height="6.3750005"
         width="3.8250003"
         id="rect6264-2-2-3"
         style="color:#bebebe;display:inline;overflow:visible;visibility:visible;fill:#bebebe;fill-opacity:1;fill-rule:nonzero;stroke:none;stroke-width:2;marker:none" />
    </clipPath>
    <clipPath
       clipPathUnits="userSpaceOnUse"
       id="clipPath6258-2-9-1">
      <rect
         y="221.28162"
         x="26.965673"
         height="5.3129687"
         width="2.8977275"
         id="rect6260-6-1-9"
         style="color:#bebebe;display:inline;overflow:visible;visibility:visible;fill:#bebebe;fill-opacity:1;fill-rule:nonzero;stroke:none;stroke-width:2;marker:none" />
    </clipPath>
    <clipPath
       clipPathUnits="userSpaceOnUse"
       id="clipPath6254-1-2-4">
      <rect
         y="221.50153"
         x="26.998718"
         height="4.8783236"
         width="1.876245"
         id="rect6256-0-7-7"
         style="color:#bebebe;display:inline;overflow:visible;visibility:visible;fill:#bebebe;fill-opacity:1;stroke:none;stroke-width:2;marker:none" />
    </clipPath>
    <clipPath
       clipPathUnits="userSpaceOnUse"
       id="clipPath6254-1-2-4-6">
      <rect
         y="221.50153"
         x="26.998718"
         height="4.8783236"
         width="1.876245"
         id="rect6256-0-7-7-1"
         style="color:#bebebe;display:inline;overflow:visible;visibility:visible;fill:#bebebe;fill-opacity:1;stroke:none;stroke-width:2;marker:none" />
    </clipPath>
    <clipPath
       clipPathUnits="userSpaceOnUse"
       id="clipPath6258-2-9-1-5">
      <rect
         y="221.28162"
         x="26.965673"
         height="5.3129687"
         width="2.8977275"
         id="rect6260-6-1-9-5"
         style="color:#bebebe;display:inline;overflow:visible;visibility:visible;fill:#bebebe;fill-opacity:1;fill-rule:nonzero;stroke:none;stroke-width:2;marker:none" />
    </clipPath>
    <clipPath
       clipPathUnits="userSpaceOnUse"
       id="clipPath6262-7-6-9-4">
      <rect
         y="220.75"
         x="26.849981"
         height="6.3750005"
         width="3.8250003"
         id="rect6264-2-2-3-7"
         style="color:#bebebe;display:inline;overflow:visible;visibility:visible;fill:#bebebe;fill-opacity:1;fill-rule:nonzero;stroke:none;stroke-width:2;marker:none" />
    </clipPath>
    <clipPath
       clipPathUnits="userSpaceOnUse"
       id="clipPath6254-1-2-8">
      <rect
         y="221.50153"
         x="26.998718"
         height="4.8783236"
         width="1.876245"
         id="rect6256-0-7-8"
         style="color:#bebebe;display:inline;overflow:visible;visibility:visible;fill:#bebebe;fill-opacity:1;stroke:none;stroke-width:2;marker:none" />
    </clipPath>
    <clipPath
       clipPathUnits="userSpaceOnUse"
       id="clipPath6258-2-9-4">
      <rect
         y="221.28162"
         x="26.965673"
         height="5.3129687"
         width="2.8977275"
         id="rect6260-6-1-3"
         style="color:#bebebe;display:inline;overflow:visible;visibility:visible;fill:#bebebe;fill-opacity:1;fill-rule:nonzero;stroke:none;stroke-width:2;marker:none" />
    </clipPath>
    <clipPath
       clipPathUnits="userSpaceOnUse"
       id="clipPath6262-7-6-1">
      <rect
         y="220.75"
         x="26.849981"
         height="6.3750005"
         width="3.8250003"
         id="rect6264-2-2-4"
         style="color:#bebebe;display:inline;overflow:visible;visibility:visible;fill:#bebebe;fill-opacity:1;fill-rule:nonzero;stroke:none;stroke-width:2;marker:none" />
    </clipPath>
  </defs>
  <sodipodi:namedview
     id="base"
     pagecolor="#dddddd"
     bordercolor="#666666"
     borderopacity="1.0"
     inkscape:pageopacity="0"
     inkscape:pageshadow="2"
     inkscape:zoom="2.8284273"
     inkscape:cx="126.56369"
     inkscape:cy="150.96117"
     inkscape:document-units="mm"
     inkscape:current-layer="layer1"
     showgrid="false"
     inkscape:window-width="1920"
     inkscape:window-height="1016"
     inkscape:window-x="0"
     inkscape:window-y="27"
     inkscape:window-maximized="1"
     units="px"
     inkscape:snap-global="true"
     fit-margin-top="5"
     fit-margin-left="5"
     fit-margin-right="5"
     fit-margin-bottom="5"
     inkscape:snap-grids="true">
    <inkscape:grid
       type="xygrid"
       id="grid3470"
       originx="-180.98583"
       originy="-153.56708"
       empspacing="4" />
  </sodipodi:namedview>
  <metadata
     id="metadata2819">
    <rdf:RDF>
      <cc:Work
         rdf:about="">
        <dc:format>image/svg+xml</dc:format>
        <dc:type
           rdf:resource="http://purl.org/dc/dcmitype/StillImage" />
        <dc:title></dc:title>
      </cc:Work>
    </rdf:RDF>
  </metadata>
  <g
     inkscape:label="Layer 1"
     inkscape:groupmode="layer"
     id="layer1"
     transform="translate(-180.98585,-64.05788)">
    <g
       id="g14779"
       transform="translate(-0.20543553,-2.1162548)">
      <path
         sodipodi:nodetypes="sccscscscs"
         inkscape:connector-curvature="0"
         id="path14658-7"
         transform="matrix(0.26458333,0,0,0.26458333,180.98585,64.05788)"
         d="M 148.25195,45.253906 C 96.155815,45.25391 53.75,87.653854 53.75,139.75 h 5.943359 v -11.74414 c 0,-9.02021 7.674703,-18.08913 16.26571,-19.59485 C 87.651332,79.776755 115.34322,61.250003 148.25195,61.25 c 32.7972,3e-6 60.79727,18.681553 72.56055,47.16101 h 12.49023 c 1.80474,0 3.49991,0.46153 4.97266,1.29211 C 226.08428,71.60875 190.33378,45.253909 148.25195,45.253906 Z"
         style="color:#000000;font-style:normal;font-variant:normal;font-weight:normal;font-stretch:normal;font-size:medium;line-height:normal;font-family:sans-serif;font-variant-ligatures:normal;font-variant-position:normal;font-variant-caps:normal;font-variant-numeric:normal;font-variant-alternates:normal;font-feature-settings:normal;text-indent:0;text-align:start;text-decoration:none;text-decoration-line:none;text-decoration-style:solid;text-decoration-color:#000000;letter-spacing:normal;word-spacing:normal;text-transform:none;writing-mode:lr-tb;direction:ltr;text-orientation:mixed;dominant-baseline:auto;baseline-shift:baseline;text-anchor:start;white-space:normal;shape-padding:0;clip-rule:nonzero;display:inline;overflow:visible;visibility:visible;opacity:1;isolation:auto;mix-blend-mode:normal;color-interpolation:sRGB;color-interpolation-filters:linearRGB;solid-color:#000000;solid-opacity:1;vector-effect:none;fill:#2b2e3c;fill-opacity:1;fill-rule:evenodd;stroke:none;stroke-width:15.99999905;stroke-linecap:butt;stroke-linejoin:bevel;stroke-miterlimit:4;stroke-dasharray:none;stroke-dashoffset:6.99212599;stroke-opacity:1;color-rendering:auto;image-rendering:auto;shape-rendering:auto;text-rendering:auto;enable-background:accumulate" />
      <path
         style="fill:#2b2e3c;fill-opacity:1;stroke:none;stroke-width:3.74492478"
         d="M 246.29883 113.32422 C 245.24091 113.31922 244.20322 113.42587 243.18359 113.59766 L 243.18359 176.88477 C 243.55283 176.87317 243.91651 176.83043 244.28125 176.79688 C 244.28189 176.79682 244.28256 176.79693 244.2832 176.79688 L 251.95898 180.41016 L 251.99219 202.50586 C 251.99219 209.45739 250.08985 213.75385 247.7832 216.29883 C 245.47505 218.84392 241.00195 220.26367 238.37695 220.07617 L 201.9375 220.07617 C 201.75861 212.4784 195.60121 206.4082 187.95898 206.4082 C 180.20328 206.4082 173.95508 212.65644 173.95508 220.41211 C 173.95508 228.16778 180.20328 234.41406 187.95898 234.41406 C 190.02696 234.41406 191.9812 233.95854 193.74414 233.16016 L 238.37891 233.16016 C 241.00391 233.16016 252.55536 230.49154 257.46875 225.07227 C 262.38251 219.65307 263.87358 211.90562 263.95898 202.63281 L 263.95898 170.63672 L 258.46875 168.10156 C 260.12557 165.5656 261.25559 162.60557 261.64648 159.36133 L 264.58008 135.00391 C 265.88217 124.19765 258.58968 114.57863 248.22852 113.43555 C 247.58097 113.36415 246.93707 113.32739 246.29883 113.32422 z "
         transform="matrix(0.26458333,0,0,0.26458333,181.19129,66.174135)"
         id="rect8371-6" />
      <path
         sodipodi:nodetypes="csccccc"
         inkscape:connector-curvature="0"
         id="rect8371-6-1"
         transform="matrix(0.26458333,0,0,0.26458333,180.98585,64.05788)"
         d="m 57.923828,121.32227 c -0.638233,0.003 -1.282136,0.0399 -1.929687,0.11132 -10.361197,1.14308 -17.65361,10.7621 -16.351563,21.56836 l 2.933594,24.35743 c 1.145997,9.5111 8.558371,16.67088 17.382812,17.47265 v -63.40039 c -0.671075,-0.072 -1.34915,-0.11279 -2.035156,-0.10937 z"
         style="fill:#2b2e3c;fill-opacity:1;stroke:none;stroke-width:3.74492478" />
      <g
         transform="translate(-7.4487678,-0.76747182)"
         id="g4300">
        <path
           style="opacity:1;fill:none;fill-opacity:1;fill-rule:evenodd;stroke:none;stroke-width:1;stroke-linecap:square;stroke-linejoin:miter;stroke-miterlimit:4;stroke-dasharray:none;stroke-dashoffset:0;stroke-opacity:1"
           d="m 208.73702,94.213321 c -0.47036,0.01241 -1.39641,0.514051 -2.1115,1.200959 -0.71638,0.688142 -1.20303,1.581425 -1.20303,1.904794 v 16.144236 c 0,0.30466 0.49615,1.09438 1.22628,1.69137 0.73012,0.59699 1.67006,1.01751 2.07998,1.01751 h 0.50023 40.88846 c 1.04591,0 1.87327,-0.82688 1.87327,-1.87276 V 96.084525 c 0,-1.045889 -0.82736,-1.871204 -1.87327,-1.871204 z"
           id="rect2278-9-8-37-1-9"
           inkscape:connector-curvature="0" />
        <path
           style="opacity:1;fill:none;fill-opacity:1;fill-rule:evenodd;stroke:none;stroke-width:3.44200492;stroke-linecap:square;stroke-linejoin:miter;stroke-miterlimit:4;stroke-dasharray:none;stroke-dashoffset:0;stroke-opacity:1"
           d="m 208.72875,94.214355 c -0.47263,0.01744 -1.39189,0.516615 -2.10323,1.199925 -0.71638,0.688142 -1.20303,1.581425 -1.20303,1.904794 v 16.144236 c 0,0.30466 0.49615,1.09438 1.22628,1.69137 0.73012,0.59699 1.67006,1.01751 2.07998,1.01751 0.007,-0.45466 2.6e-4,-20.996828 0,-21.957835 z"
           id="rect2278-9-5-5-3"
           inkscape:connector-curvature="0" />
        <path
           style="opacity:1;fill:#2b2e3c;fill-opacity:1;fill-rule:evenodd;stroke:none;stroke-width:3.14989424;stroke-linecap:square;stroke-linejoin:miter;stroke-miterlimit:4;stroke-dasharray:none;stroke-dashoffset:0;stroke-opacity:1"
           d="m 204.80859,188.28906 c -44.6861,-0.0986 -89.38835,0.94899 -134.064449,0.1211 4.53e-4,42.31079 34.300499,80.00252 76.611329,80.00195 24.67364,-0.002 46.60351,-12.88121 60.60937,-32.00195 H 196.1582 c -2.46289,1.26834 -5.24551,1.99804 -8.19922,1.99804 -9.91744,0 -17.99609,-8.07865 -17.99609,-17.99609 0,-9.91744 8.07865,-17.99805 17.99609,-17.99805 8.54077,0 15.70483,5.99813 17.53321,13.9961 h 13.30273 c 3.30869,-8.8289 5.14843,-18.29108 5.16406,-28 -6.38291,-0.0697 -12.76666,-0.107 -19.15039,-0.1211 z"
           transform="matrix(0.26458333,0,0,0.26458333,188.64005,66.941607)"
           id="path3641" />
      </g>
      <path
         inkscape:connector-curvature="0"
         id="path5038"
         d="M 242.35835,95.916627 H 203.20001"
         style="opacity:1;fill:#2b2e3c;fill-opacity:1;fill-rule:evenodd;stroke:none;stroke-width:2.11666656;stroke-linecap:butt;stroke-linejoin:bevel;stroke-miterlimit:4;stroke-dasharray:none;stroke-dashoffset:6.99212599;stroke-opacity:1" />
      <path
         id="rect5016"
         d="m 202.14165,93.799736 c -2.34527,0 -4.23333,1.888064 -4.23333,4.233333 v 12.700001 c 0,2.34527 1.88806,4.23334 4.23333,4.23334 h 40.21667 c 1.17264,0 2.11667,-0.94403 2.11667,-2.11667 V 95.916403 c 0,-1.172636 -0.94403,-2.116667 -2.11667,-2.116667 z m -0.76946,2.116148 h 41.04659 c 1.41145,0 1.41145,2.117185 0,2.117185 h -40.27713 l -1.05833,1.058339 c -1.08101,0.910732 -2.44507,-0.713822 -1.36116,-1.621097 z M 200.4632,109.4086 c 0.2046,0.0139 0.41743,0.0954 0.62012,0.26614 l 1.05833,1.05833 h 40.27713 c 1.41145,0 1.41145,2.11718 0,2.11718 h -41.04659 l -1.65003,-1.55442 c -0.88067,-0.73716 -0.14555,-1.94763 0.74104,-1.88723 z"
         style="opacity:1;fill:#2b2e3c;fill-opacity:1;fill-rule:evenodd;stroke:none;stroke-width:2.11666656;stroke-linecap:butt;stroke-linejoin:bevel;stroke-miterlimit:4;stroke-dasharray:none;stroke-dashoffset:6.99212599;stroke-opacity:1"
         inkscape:connector-curvature="0" />
      <path
         inkscape:connector-curvature="0"
         id="path5174"
         d="m 220.25063,81.176733 c -1.80776,0 -3.55906,0.239768 -5.22604,0.685746 0.29617,0.799361 0.68439,1.886208 1.15239,3.331063 0.82082,2.534165 1.59426,5.368167 1.79782,7.54786 h 7.85223 c -0.19776,-1.98593 -0.90795,-4.756892 -1.83968,-7.207829 -0.54618,-1.43675 -1.14636,-2.741964 -1.69705,-3.660242 -0.14344,-0.239181 -0.28377,-0.4501 -0.416,-0.630452 -0.53577,-0.04269 -1.0769,-0.06615 -1.62367,-0.06615 z m 2.9869,0.220141 c 0.59005,0.997535 1.19045,2.313982 1.73994,3.759461 0.95968,2.524471 1.76274,5.397604 1.97714,7.585067 h 11.54607 c -2.82502,-5.974511 -8.49557,-10.339923 -15.26315,-11.344528 z m -9.22528,0.766362 c -5.30886,1.72519 -9.65277,5.589896 -12.01167,10.578645 l 14.96343,-5.29e-4 c -0.23233,-1.981893 -1.00676,-4.793857 -1.79317,-7.221782 -0.41764,-1.289387 -0.8231,-2.435549 -1.15859,-3.356384 z"
         style="opacity:1;fill:#2b2e3c;fill-opacity:1;fill-rule:evenodd;stroke:none;stroke-width:1.05833328;stroke-linecap:butt;stroke-linejoin:bevel;stroke-miterlimit:4;stroke-dasharray:none;stroke-dashoffset:6.99212599;stroke-opacity:1"
         sodipodi:nodetypes="scccccccscscccccccc" />
    </g>
    <ellipse
       style="opacity:1;fill:none;fill-opacity:1;fill-rule:evenodd;stroke:#000000;stroke-width:5.15799999;stroke-linecap:butt;stroke-linejoin:bevel;stroke-miterlimit:4;stroke-dasharray:none;stroke-dashoffset:6.99212599;stroke-opacity:1"
       id="path14620"
       cx="220.14418"
       cy="101.09955"
       r="22.434303" />
    <circle
       style="opacity:1;fill:none;fill-opacity:1;fill-rule:evenodd;stroke:#000000;stroke-width:5.15799982;stroke-linecap:butt;stroke-linejoin:bevel;stroke-miterlimit:4;stroke-dasharray:none;stroke-dashoffset:6.99212599;stroke-opacity:1"
       id="path14620-9"
       cx="220.14418"
       cy="101.09955"
       r="0" />
  </g>
</svg>
