<?xml version="1.0" encoding="UTF-8" standalone="no"?>
<!-- Created with Inkscape (http://www.inkscape.org/) -->

<svg
   xmlns:dc="http://purl.org/dc/elements/1.1/"
   xmlns:cc="http://creativecommons.org/ns#"
   xmlns:rdf="http://www.w3.org/1999/02/22-rdf-syntax-ns#"
   xmlns:svg="http://www.w3.org/2000/svg"
   xmlns="http://www.w3.org/2000/svg"
   xmlns:sodipodi="http://sodipodi.sourceforge.net/DTD/sodipodi-0.dtd"
   xmlns:inkscape="http://www.inkscape.org/namespaces/inkscape"
   width="300"
   height="300"
   viewBox="0 0 79.374996 79.375002"
   version="1.1"
   id="svg2822"
   inkscape:version="0.92.2 2405546, 2018-03-11"
   sodipodi:docname="external-communication-phone-based.svg"
   inkscape:export-filename="/home/bastian/Sync/VRAR Requirements Visualization/virtual-reality-icons repository/900px/external-communication-phone-based.png"
   inkscape:export-xdpi="288"
   inkscape:export-ydpi="288">
  <defs
     id="defs2816">
    <clipPath
       clipPathUnits="userSpaceOnUse"
       id="clipPath6262-7">
      <rect
         y="220.75"
         x="26.849981"
         height="6.3750005"
         width="3.8250003"
         id="rect6264-2"
         style="color:#bebebe;display:inline;overflow:visible;visibility:visible;fill:#bebebe;fill-opacity:1;fill-rule:nonzero;stroke:none;stroke-width:2;marker:none" />
    </clipPath>
    <clipPath
       clipPathUnits="userSpaceOnUse"
       id="clipPath6258-2">
      <rect
         y="221.28162"
         x="26.965673"
         height="5.3129687"
         width="2.8977275"
         id="rect6260-6"
         style="color:#bebebe;display:inline;overflow:visible;visibility:visible;fill:#bebebe;fill-opacity:1;fill-rule:nonzero;stroke:none;stroke-width:2;marker:none" />
    </clipPath>
    <clipPath
       clipPathUnits="userSpaceOnUse"
       id="clipPath6254-1">
      <rect
         y="221.50153"
         x="26.998718"
         height="4.8783236"
         width="1.876245"
         id="rect6256-0"
         style="color:#bebebe;display:inline;overflow:visible;visibility:visible;fill:#bebebe;fill-opacity:1;stroke:none;stroke-width:2;marker:none" />
    </clipPath>
    <clipPath
       clipPathUnits="userSpaceOnUse"
       id="clipPath6262-7-6">
      <rect
         y="220.75"
         x="26.849981"
         height="6.3750005"
         width="3.8250003"
         id="rect6264-2-2"
         style="color:#bebebe;display:inline;overflow:visible;visibility:visible;fill:#bebebe;fill-opacity:1;fill-rule:nonzero;stroke:none;stroke-width:2;marker:none" />
    </clipPath>
    <clipPath
       clipPathUnits="userSpaceOnUse"
       id="clipPath6258-2-9">
      <rect
         y="221.28162"
         x="26.965673"
         height="5.3129687"
         width="2.8977275"
         id="rect6260-6-1"
         style="color:#bebebe;display:inline;overflow:visible;visibility:visible;fill:#bebebe;fill-opacity:1;fill-rule:nonzero;stroke:none;stroke-width:2;marker:none" />
    </clipPath>
    <clipPath
       clipPathUnits="userSpaceOnUse"
       id="clipPath6254-1-2">
      <rect
         y="221.50153"
         x="26.998718"
         height="4.8783236"
         width="1.876245"
         id="rect6256-0-7"
         style="color:#bebebe;display:inline;overflow:visible;visibility:visible;fill:#bebebe;fill-opacity:1;stroke:none;stroke-width:2;marker:none" />
    </clipPath>
    <clipPath
       clipPathUnits="userSpaceOnUse"
       id="clipPath6262-7-6-9">
      <rect
         y="220.75"
         x="26.849981"
         height="6.3750005"
         width="3.8250003"
         id="rect6264-2-2-3"
         style="color:#bebebe;display:inline;overflow:visible;visibility:visible;fill:#bebebe;fill-opacity:1;fill-rule:nonzero;stroke:none;stroke-width:2;marker:none" />
    </clipPath>
    <clipPath
       clipPathUnits="userSpaceOnUse"
       id="clipPath6258-2-9-1">
      <rect
         y="221.28162"
         x="26.965673"
         height="5.3129687"
         width="2.8977275"
         id="rect6260-6-1-9"
         style="color:#bebebe;display:inline;overflow:visible;visibility:visible;fill:#bebebe;fill-opacity:1;fill-rule:nonzero;stroke:none;stroke-width:2;marker:none" />
    </clipPath>
    <clipPath
       clipPathUnits="userSpaceOnUse"
       id="clipPath6254-1-2-4">
      <rect
         y="221.50153"
         x="26.998718"
         height="4.8783236"
         width="1.876245"
         id="rect6256-0-7-7"
         style="color:#bebebe;display:inline;overflow:visible;visibility:visible;fill:#bebebe;fill-opacity:1;stroke:none;stroke-width:2;marker:none" />
    </clipPath>
    <clipPath
       clipPathUnits="userSpaceOnUse"
       id="clipPath6254-1-2-4-6">
      <rect
         y="221.50153"
         x="26.998718"
         height="4.8783236"
         width="1.876245"
         id="rect6256-0-7-7-1"
         style="color:#bebebe;display:inline;overflow:visible;visibility:visible;fill:#bebebe;fill-opacity:1;stroke:none;stroke-width:2;marker:none" />
    </clipPath>
    <clipPath
       clipPathUnits="userSpaceOnUse"
       id="clipPath6258-2-9-1-5">
      <rect
         y="221.28162"
         x="26.965673"
         height="5.3129687"
         width="2.8977275"
         id="rect6260-6-1-9-5"
         style="color:#bebebe;display:inline;overflow:visible;visibility:visible;fill:#bebebe;fill-opacity:1;fill-rule:nonzero;stroke:none;stroke-width:2;marker:none" />
    </clipPath>
    <clipPath
       clipPathUnits="userSpaceOnUse"
       id="clipPath6262-7-6-9-4">
      <rect
         y="220.75"
         x="26.849981"
         height="6.3750005"
         width="3.8250003"
         id="rect6264-2-2-3-7"
         style="color:#bebebe;display:inline;overflow:visible;visibility:visible;fill:#bebebe;fill-opacity:1;fill-rule:nonzero;stroke:none;stroke-width:2;marker:none" />
    </clipPath>
    <clipPath
       clipPathUnits="userSpaceOnUse"
       id="clipPath6254-1-2-8">
      <rect
         y="221.50153"
         x="26.998718"
         height="4.8783236"
         width="1.876245"
         id="rect6256-0-7-8"
         style="color:#bebebe;display:inline;overflow:visible;visibility:visible;fill:#bebebe;fill-opacity:1;stroke:none;stroke-width:2;marker:none" />
    </clipPath>
    <clipPath
       clipPathUnits="userSpaceOnUse"
       id="clipPath6258-2-9-4">
      <rect
         y="221.28162"
         x="26.965673"
         height="5.3129687"
         width="2.8977275"
         id="rect6260-6-1-3"
         style="color:#bebebe;display:inline;overflow:visible;visibility:visible;fill:#bebebe;fill-opacity:1;fill-rule:nonzero;stroke:none;stroke-width:2;marker:none" />
    </clipPath>
    <clipPath
       clipPathUnits="userSpaceOnUse"
       id="clipPath6262-7-6-1">
      <rect
         y="220.75"
         x="26.849981"
         height="6.3750005"
         width="3.8250003"
         id="rect6264-2-2-4"
         style="color:#bebebe;display:inline;overflow:visible;visibility:visible;fill:#bebebe;fill-opacity:1;fill-rule:nonzero;stroke:none;stroke-width:2;marker:none" />
    </clipPath>
  </defs>
  <sodipodi:namedview
     id="base"
     pagecolor="#dddddd"
     bordercolor="#666666"
     borderopacity="1.0"
     inkscape:pageopacity="0"
     inkscape:pageshadow="2"
     inkscape:zoom="2.8284272"
     inkscape:cx="137.31894"
     inkscape:cy="165.26964"
     inkscape:document-units="mm"
     inkscape:current-layer="layer1"
     showgrid="false"
     inkscape:window-width="1920"
     inkscape:window-height="1016"
     inkscape:window-x="0"
     inkscape:window-y="27"
     inkscape:window-maximized="1"
     units="px"
     inkscape:snap-global="true"
     fit-margin-top="5"
     fit-margin-left="5"
     fit-margin-right="5"
     fit-margin-bottom="5"
     inkscape:snap-grids="true">
    <inkscape:grid
       type="xygrid"
       id="grid3470"
       originx="-180.98583"
       originy="-153.56708"
       empspacing="4" />
  </sodipodi:namedview>
  <metadata
     id="metadata2819">
    <rdf:RDF>
      <cc:Work
         rdf:about="">
        <dc:format>image/svg+xml</dc:format>
        <dc:type
           rdf:resource="http://purl.org/dc/dcmitype/StillImage" />
        <dc:title></dc:title>
      </cc:Work>
    </rdf:RDF>
  </metadata>
  <g
     inkscape:label="Layer 1"
     inkscape:groupmode="layer"
     id="layer1"
     transform="translate(-180.98585,-64.05788)">
    <g
       id="g9424"
       transform="translate(12.705663,-2.2433333e-4)">
      <path
         id="rect9309"
         transform="matrix(0.26458333,0,0,0.26458333,180.98585,64.05788)"
         d="m 79.9375,112.41016 c -7.547328,0 -13.823857,5.18084 -15.527344,12.18945 l 15.548828,-0.0762 v 55.88672 l -15.49414,0.0762 c 0.944096,3.59748 3.104434,6.69141 6.017578,8.82617 h 31.541018 c 1.38077,0 2.49997,-1.12118 2.5,-2.50195 v -2.39844 H 83.958984 v -8.00195 H 232.16602 c 5.33462,0 5.33462,8.00195 0,8.00195 H 108.77344 l 8.97851,7.99805 H 231.9375 c 4.43202,0 8,-3.56798 8,-8 v -64 c 0,-4.43201 -3.56798,-8 -8,-8 h -147.978516 -4 z m 4.021484,7.99804 H 232.16602 c 5.33462,0 5.33462,8.00196 0,8.00196 H 83.958984 Z"
         style="opacity:1;fill:#2b2e3c;fill-opacity:1;fill-rule:evenodd;stroke:none;stroke-width:5;stroke-linecap:butt;stroke-linejoin:bevel;stroke-miterlimit:4;stroke-dasharray:none;stroke-dashoffset:6.99212599;stroke-opacity:1"
         inkscape:connector-curvature="0" />
      <g
         transform="translate(-7.4544266,-0.76724732)"
         id="g4300">
        <path
           style="opacity:1;fill:none;fill-opacity:1;fill-rule:evenodd;stroke:none;stroke-width:1;stroke-linecap:square;stroke-linejoin:miter;stroke-miterlimit:4;stroke-dasharray:none;stroke-dashoffset:0;stroke-opacity:1"
           d="m 208.73702,94.213321 c -0.47036,0.01241 -1.39641,0.514051 -2.1115,1.200959 -0.71638,0.688142 -1.20303,1.581425 -1.20303,1.904794 v 16.144236 c 0,0.30466 0.49615,1.09438 1.22628,1.69137 0.73012,0.59699 1.67006,1.01751 2.07998,1.01751 h 0.50023 40.88846 c 1.04591,0 1.87327,-0.82688 1.87327,-1.87276 V 96.084525 c 0,-1.045889 -0.82736,-1.871204 -1.87327,-1.871204 z"
           id="rect2278-9-8-37-1-9"
           inkscape:connector-curvature="0" />
        <path
           style="opacity:1;fill:none;fill-opacity:1;fill-rule:evenodd;stroke:none;stroke-width:3.44200492;stroke-linecap:square;stroke-linejoin:miter;stroke-miterlimit:4;stroke-dasharray:none;stroke-dashoffset:0;stroke-opacity:1"
           d="m 208.72875,94.214355 c -0.47263,0.01744 -1.39189,0.516615 -2.10323,1.199925 -0.71638,0.688142 -1.20303,1.581425 -1.20303,1.904794 v 16.144236 c 0,0.30466 0.49615,1.09438 1.22628,1.69137 0.73012,0.59699 1.67006,1.01751 2.07998,1.01751 0.007,-0.45466 2.6e-4,-20.996828 0,-21.957835 z"
           id="rect2278-9-5-5-3"
           inkscape:connector-curvature="0" />
        <path
           style="opacity:1;fill:#2b2e3c;fill-opacity:1;fill-rule:evenodd;stroke:none;stroke-width:3.14989424;stroke-linecap:square;stroke-linejoin:miter;stroke-miterlimit:4;stroke-dasharray:none;stroke-dashoffset:0;stroke-opacity:1"
           d="m 203.5,197.88867 c -27.66435,-0.0611 -55.33506,0.3056 -83.00195,0.40625 l 1.72656,1.53711 -19.76563,18.49609 v -5.98828 c 0,-1.38081 -1.11915,-2.50195 -2.499996,-2.50195 H 70.332031 c 5.652024,37.26067 37.397599,68.17434 75.714849,68.17383 42.26006,-0.003 76.53548,-37.74192 76.60351,-80.00195 -6.38291,-0.0697 -12.76666,-0.10701 -19.15039,-0.1211 z"
           transform="matrix(0.26458333,0,0,0.26458333,188.9864,64.402067)"
           id="path2039-7-92-9-6"
           inkscape:connector-curvature="0" />
        <path
           transform="matrix(0.26458333,0,0,0.26458333,180.98585,64.05788)"
           sodipodi:nodetypes="ccccc"
           inkscape:connector-curvature="0"
           style="opacity:1;fill:#2b2e3c;fill-opacity:1;fill-rule:evenodd;stroke:none;stroke-width:7.55905485;stroke-linecap:round;stroke-linejoin:miter;stroke-miterlimit:4;stroke-dasharray:none;stroke-dashoffset:0;stroke-opacity:1"
           d="m 132.11188,51.311696 c -3.34507,2.324589 -8,8.000001 -8,12.000001 l 20,5.657546 c 1.67696,-0.641915 3.96569,-1.000545 5.96429,-1.657546 z"
           id="path9205-9-6-2" />
        <path
           transform="matrix(0.26458333,0,0,0.26458333,180.98585,64.05788)"
           sodipodi:nodetypes="cccccc"
           inkscape:connector-curvature="0"
           style="opacity:1;fill:#2b2e3c;fill-opacity:1;fill-rule:evenodd;stroke:none;stroke-width:7.06252146;stroke-linecap:round;stroke-linejoin:miter;stroke-miterlimit:4;stroke-dasharray:none;stroke-dashoffset:0;stroke-opacity:1"
           d="m 136.18805,23.949711 17.58008,41.667969 c 0.77148,-0.21525 1.55571,-0.417787 2.34375,-0.615234 l -4,-33.69075 c -2.27246,-3.936011 -8.38363,-7.686336 -12,-7.992844 -1.31111,-0.118008 -2.83211,0.13303 -3.92383,0.630859 z"
           id="path9205-2-7-7-6" />
      </g>
      <path
         inkscape:connector-curvature="0"
         id="path5038"
         d="M 242.35269,95.916851 H 203.19435"
         style="opacity:1;fill:#2b2e3c;fill-opacity:1;fill-rule:evenodd;stroke:none;stroke-width:2.11666656;stroke-linecap:butt;stroke-linejoin:bevel;stroke-miterlimit:4;stroke-dasharray:none;stroke-dashoffset:6.99212599;stroke-opacity:1" />
      <path
         inkscape:connector-curvature="0"
         id="path5174"
         d="m 220.24497,81.176957 c -1.80776,0 -3.55906,0.239768 -5.22604,0.685746 0.29617,0.799361 0.68439,1.886208 1.15239,3.331063 0.82082,2.534165 1.59426,5.368167 1.79782,7.54786 h 7.85223 c -0.19776,-1.98593 -0.90795,-4.756892 -1.83968,-7.207829 -0.54618,-1.43675 -1.14636,-2.741964 -1.69705,-3.660242 -0.14344,-0.239181 -0.28377,-0.4501 -0.416,-0.630452 -0.53577,-0.04269 -1.0769,-0.06615 -1.62367,-0.06615 z m 2.9869,0.220141 c 0.59005,0.997535 1.19045,2.313982 1.73994,3.759461 0.95968,2.524471 1.76274,5.397604 1.97714,7.585067 h 11.54607 C 235.67,86.767115 229.99945,82.401703 223.23187,81.397098 Z m -9.22528,0.766362 c -5.30886,1.72519 -9.65277,5.589418 -12.01167,10.578166 h 14.96343 c -0.23233,-1.981893 -1.00676,-4.793857 -1.79317,-7.221782 -0.41764,-1.289387 -0.8231,-2.435549 -1.15859,-3.356384 z"
         style="opacity:1;fill:#2b2e3c;fill-opacity:1;fill-rule:evenodd;stroke:none;stroke-width:1.05833328;stroke-linecap:butt;stroke-linejoin:bevel;stroke-miterlimit:4;stroke-dasharray:none;stroke-dashoffset:6.99212599;stroke-opacity:1" />
      <g
         transform="matrix(1.3647192,0,0,1.3647192,529.48788,-787.02159)"
         id="g4721-8-4-1">
        <path
           inkscape:connector-curvature="0"
           id="path1995-9-8-7"
           d="m -235.57232,657.08352 a 0.48473301,0.48473301 0 0 0 -0.49816,0.48471 v 1.79472 h -8.21655 c -0.17767,-0.003 -0.34494,0.0784 -0.44959,0.16952 -0.10464,0.0911 -0.16716,0.18886 -0.21859,0.28731 -0.10285,0.19688 -0.16164,0.4104 -0.21084,0.65371 -0.0984,0.48665 -0.14159,1.0877 -0.14159,1.69344 0,0.60574 0.0432,1.20729 0.14159,1.69394 0.0492,0.24334 0.10799,0.45683 0.21084,0.65371 0.0514,0.0984 0.11395,0.19624 0.21859,0.28733 0.10464,0.0911 0.27192,0.17185 0.44959,0.16899 l -0.008,5.1e-4 h 8.2243 v 1.79369 a 0.48473301,0.48473301 0 0 0 0.81597,0.35398 l 5.03587,-4.71186 a 0.48473301,0.48473301 0 0 0 -0.009,-0.71572 l -5.03587,-4.48551 a 0.48473301,0.48473301 0 0 0 -0.30903,-0.12247 z m 0.47129,1.56527 3.83181,3.41323 -3.83181,3.58582 v -1.16115 a 0.48473301,0.48473301 0 0 0 -0.48473,-0.48474 h -8.52971 c -0.0298,-0.0709 -0.0677,-0.17212 -0.10025,-0.3333 -0.0776,-0.38386 -0.12247,-0.94491 -0.12247,-1.50172 0,-0.55682 0.0449,-1.11789 0.12247,-1.50172 0.0326,-0.16114 0.0705,-0.26191 0.10025,-0.3328 h 8.52971 a 0.48473301,0.48473301 0 0 0 0.48473,-0.48471 z"
           style="color:#000000;font-style:normal;font-variant:normal;font-weight:normal;font-stretch:normal;font-size:medium;line-height:normal;font-family:sans-serif;font-variant-ligatures:normal;font-variant-position:normal;font-variant-caps:normal;font-variant-numeric:normal;font-variant-alternates:normal;font-feature-settings:normal;text-indent:0;text-align:start;text-decoration:none;text-decoration-line:none;text-decoration-style:solid;text-decoration-color:#000000;letter-spacing:normal;word-spacing:normal;text-transform:none;writing-mode:lr-tb;direction:ltr;text-orientation:mixed;dominant-baseline:auto;baseline-shift:baseline;text-anchor:start;white-space:normal;shape-padding:0;clip-rule:nonzero;display:inline;overflow:visible;visibility:visible;opacity:1;isolation:auto;mix-blend-mode:normal;color-interpolation:sRGB;color-interpolation-filters:linearRGB;solid-color:#000000;solid-opacity:1;vector-effect:none;fill:#2b2e3c;fill-opacity:1;fill-rule:evenodd;stroke:none;stroke-width:0.96936911;stroke-linecap:round;stroke-linejoin:round;stroke-miterlimit:4;stroke-dasharray:none;stroke-dashoffset:0;stroke-opacity:1;color-rendering:auto;image-rendering:auto;shape-rendering:auto;text-rendering:auto;enable-background:accumulate" />
      </g>
      <g
         transform="translate(448.80955,-540.01041)"
         id="g3981-3-7">
        <path
           sodipodi:nodetypes="ccsssscccccssssc"
           inkscape:connector-curvature="0"
           id="rect10911-2-3-2"
           d="m -245.58192,636.47196 c 7.6e-4,-0.3005 -0.24247,-0.5446 -0.54297,-0.54492 l -19.51522,0.0935 c -1.52795,0.007 -2.77539,1.24743 -2.77539,2.77539 v 11.41211 c 0,1.52796 1.24744,2.78271 2.77539,2.77539 l 19.51522,-0.0935 c 0.3005,-3.3e-4 0.54373,-0.24442 0.54297,-0.54492 z m -1.08594,0.54297 v 14.78711 l -18.97225,0.0935 c -0.94455,0.005 -1.6875,-0.74294 -1.6875,-1.6875 v -11.41211 c 0,-0.94456 0.74294,-1.68284 1.6875,-1.6875 z"
           style="color:#000000;font-style:normal;font-variant:normal;font-weight:normal;font-stretch:normal;font-size:medium;line-height:normal;font-family:sans-serif;font-variant-ligatures:normal;font-variant-position:normal;font-variant-caps:normal;font-variant-numeric:normal;font-variant-alternates:normal;font-feature-settings:normal;text-indent:0;text-align:start;text-decoration:none;text-decoration-line:none;text-decoration-style:solid;text-decoration-color:#000000;letter-spacing:normal;word-spacing:normal;text-transform:none;writing-mode:lr-tb;direction:ltr;text-orientation:mixed;dominant-baseline:auto;baseline-shift:baseline;text-anchor:start;white-space:normal;shape-padding:0;clip-rule:nonzero;display:inline;overflow:visible;visibility:visible;opacity:1;isolation:auto;mix-blend-mode:normal;color-interpolation:sRGB;color-interpolation-filters:linearRGB;solid-color:#000000;solid-opacity:1;vector-effect:none;fill:#2b2e3c;fill-opacity:1;fill-rule:evenodd;stroke:none;stroke-width:1.08700001;stroke-linecap:round;stroke-linejoin:round;stroke-miterlimit:4;stroke-dasharray:none;stroke-dashoffset:0;stroke-opacity:1;color-rendering:auto;image-rendering:auto;shape-rendering:auto;text-rendering:auto;enable-background:accumulate" />
        <path
           sodipodi:nodetypes="ccsssscccccssssc"
           inkscape:connector-curvature="0"
           id="rect10911-8-5-3-2"
           d="m -245.55433,638.55712 c -3.2e-4,-0.29974 -0.24323,-0.54265 -0.54297,-0.54297 h -15.35973 c -0.87802,0 -1.60156,0.72354 -1.60156,1.60156 v 9.55404 c 0,0.87802 0.72354,1.60156 1.60156,1.60156 h 15.35973 c 0.29974,-3.2e-4 0.54265,-0.24323 0.54297,-0.54297 z m -1.08593,0.54492 v 10.58333 h -14.81677 c -0.29462,0 -0.51563,-0.221 -0.51563,-0.51562 v -9.55404 c 0,-0.29462 0.22101,-0.51367 0.51563,-0.51367 z"
           style="color:#000000;font-style:normal;font-variant:normal;font-weight:normal;font-stretch:normal;font-size:medium;line-height:normal;font-family:sans-serif;font-variant-ligatures:normal;font-variant-position:normal;font-variant-caps:normal;font-variant-numeric:normal;font-variant-alternates:normal;font-feature-settings:normal;text-indent:0;text-align:start;text-decoration:none;text-decoration-line:none;text-decoration-style:solid;text-decoration-color:#000000;letter-spacing:normal;word-spacing:normal;text-transform:none;writing-mode:lr-tb;direction:ltr;text-orientation:mixed;dominant-baseline:auto;baseline-shift:baseline;text-anchor:start;white-space:normal;shape-padding:0;clip-rule:nonzero;display:inline;overflow:visible;visibility:visible;opacity:1;isolation:auto;mix-blend-mode:normal;color-interpolation:sRGB;color-interpolation-filters:linearRGB;solid-color:#000000;solid-opacity:1;vector-effect:none;fill:#2b2e3c;fill-opacity:1;fill-rule:evenodd;stroke:none;stroke-width:1.08700001;stroke-linecap:round;stroke-linejoin:round;stroke-miterlimit:4;stroke-dasharray:none;stroke-dashoffset:0;stroke-opacity:1;color-rendering:auto;image-rendering:auto;shape-rendering:auto;text-rendering:auto;enable-background:accumulate" />
        <path
           sodipodi:nodetypes="ccsscc"
           inkscape:connector-curvature="0"
           id="path10930-4-8-6"
           d="m -265.18465,641.72626 c -0.29975,0.005 -0.53918,0.25102 -0.53516,0.55078 v 4.23273 c 0,0.72526 1.08789,0.72526 1.08789,0 v -4.23273 c 0.004,-0.30665 -0.24611,-0.55599 -0.55273,-0.55078 z"
           style="color:#000000;font-style:normal;font-variant:normal;font-weight:normal;font-stretch:normal;font-size:medium;line-height:normal;font-family:sans-serif;font-variant-ligatures:normal;font-variant-position:normal;font-variant-caps:normal;font-variant-numeric:normal;font-variant-alternates:normal;font-feature-settings:normal;text-indent:0;text-align:start;text-decoration:none;text-decoration-line:none;text-decoration-style:solid;text-decoration-color:#000000;letter-spacing:normal;word-spacing:normal;text-transform:none;writing-mode:lr-tb;direction:ltr;text-orientation:mixed;dominant-baseline:auto;baseline-shift:baseline;text-anchor:start;white-space:normal;shape-padding:0;clip-rule:nonzero;display:inline;overflow:visible;visibility:visible;opacity:1;isolation:auto;mix-blend-mode:normal;color-interpolation:sRGB;color-interpolation-filters:linearRGB;solid-color:#000000;solid-opacity:1;vector-effect:none;fill:#2b2e3c;fill-opacity:1;fill-rule:evenodd;stroke:none;stroke-width:1.08700001;stroke-linecap:round;stroke-linejoin:round;stroke-miterlimit:4;stroke-dasharray:none;stroke-dashoffset:0;stroke-opacity:1;color-rendering:auto;image-rendering:auto;shape-rendering:auto;text-rendering:auto;enable-background:accumulate" />
      </g>
      <path
         sodipodi:nodetypes="ccccc"
         inkscape:connector-curvature="0"
         id="path4796-7-1"
         d="m 172.53635,105.90039 c -0.83106,-0.0322 -0.83106,1.23142 0,1.19922 h 6.34961 c 0.83106,0.0322 0.83106,-1.23142 0,-1.19922 z"
         style="color:#000000;font-style:normal;font-variant:normal;font-weight:normal;font-stretch:normal;font-size:medium;line-height:normal;font-family:sans-serif;font-variant-ligatures:normal;font-variant-position:normal;font-variant-caps:normal;font-variant-numeric:normal;font-variant-alternates:normal;font-feature-settings:normal;text-indent:0;text-align:start;text-decoration:none;text-decoration-line:none;text-decoration-style:solid;text-decoration-color:#000000;letter-spacing:normal;word-spacing:normal;text-transform:none;writing-mode:lr-tb;direction:ltr;text-orientation:mixed;dominant-baseline:auto;baseline-shift:baseline;text-anchor:start;white-space:normal;shape-padding:0;clip-rule:nonzero;display:inline;overflow:visible;visibility:visible;opacity:1;isolation:auto;mix-blend-mode:normal;color-interpolation:sRGB;color-interpolation-filters:linearRGB;solid-color:#000000;solid-opacity:1;vector-effect:none;fill:#2b2e3c;fill-opacity:1;fill-rule:evenodd;stroke:none;stroke-width:1.20000005;stroke-linecap:round;stroke-linejoin:round;stroke-miterlimit:4;stroke-dasharray:none;stroke-dashoffset:0;stroke-opacity:1;color-rendering:auto;image-rendering:auto;shape-rendering:auto;text-rendering:auto;enable-background:accumulate" />
      <path
         sodipodi:nodetypes="ccccc"
         inkscape:connector-curvature="0"
         id="path4798-76-0"
         d="m 175.71213,103.7832 c -0.83106,-0.0322 -0.83106,1.23142 0,1.19922 h 3.17383 c 0.83106,0.0322 0.83106,-1.23142 0,-1.19922 z"
         style="color:#000000;font-style:normal;font-variant:normal;font-weight:normal;font-stretch:normal;font-size:medium;line-height:normal;font-family:sans-serif;font-variant-ligatures:normal;font-variant-position:normal;font-variant-caps:normal;font-variant-numeric:normal;font-variant-alternates:normal;font-feature-settings:normal;text-indent:0;text-align:start;text-decoration:none;text-decoration-line:none;text-decoration-style:solid;text-decoration-color:#000000;letter-spacing:normal;word-spacing:normal;text-transform:none;writing-mode:lr-tb;direction:ltr;text-orientation:mixed;dominant-baseline:auto;baseline-shift:baseline;text-anchor:start;white-space:normal;shape-padding:0;clip-rule:nonzero;display:inline;overflow:visible;visibility:visible;opacity:1;isolation:auto;mix-blend-mode:normal;color-interpolation:sRGB;color-interpolation-filters:linearRGB;solid-color:#000000;solid-opacity:1;vector-effect:none;fill:#2b2e3c;fill-opacity:1;fill-rule:evenodd;stroke:none;stroke-width:1.20000005;stroke-linecap:round;stroke-linejoin:round;stroke-miterlimit:4;stroke-dasharray:none;stroke-dashoffset:0;stroke-opacity:1;color-rendering:auto;image-rendering:auto;shape-rendering:auto;text-rendering:auto;enable-background:accumulate" />
      <g
         transform="translate(448.80955,-540.01041)"
         id="g3981-3-7-6">
        <path
           sodipodi:nodetypes="ccsssscccccssssc"
           inkscape:connector-curvature="0"
           id="rect10911-8-5-3-2-5"
           d="m -245.55433,638.55712 c -3.2e-4,-0.29974 -0.24323,-0.54265 -0.54297,-0.54297 h -15.35973 c -0.87802,0 -1.60156,0.72354 -1.60156,1.60156 v 9.55404 c 0,0.87802 0.72354,1.60156 1.60156,1.60156 h 15.35973 c 0.29974,-3.2e-4 0.54265,-0.24323 0.54297,-0.54297 z m -1.08593,0.54492 v 10.58333 h -14.81677 c -0.29462,0 -0.51563,-0.221 -0.51563,-0.51562 v -9.55404 c 0,-0.29462 0.22101,-0.51367 0.51563,-0.51367 z"
           style="color:#000000;font-style:normal;font-variant:normal;font-weight:normal;font-stretch:normal;font-size:medium;line-height:normal;font-family:sans-serif;font-variant-ligatures:normal;font-variant-position:normal;font-variant-caps:normal;font-variant-numeric:normal;font-variant-alternates:normal;font-feature-settings:normal;text-indent:0;text-align:start;text-decoration:none;text-decoration-line:none;text-decoration-style:solid;text-decoration-color:#000000;letter-spacing:normal;word-spacing:normal;text-transform:none;writing-mode:lr-tb;direction:ltr;text-orientation:mixed;dominant-baseline:auto;baseline-shift:baseline;text-anchor:start;white-space:normal;shape-padding:0;clip-rule:nonzero;display:inline;overflow:visible;visibility:visible;opacity:1;isolation:auto;mix-blend-mode:normal;color-interpolation:sRGB;color-interpolation-filters:linearRGB;solid-color:#000000;solid-opacity:1;vector-effect:none;fill:#2b2e3c;fill-opacity:1;fill-rule:evenodd;stroke:none;stroke-width:1.08700001;stroke-linecap:round;stroke-linejoin:round;stroke-miterlimit:4;stroke-dasharray:none;stroke-dashoffset:0;stroke-opacity:1;color-rendering:auto;image-rendering:auto;shape-rendering:auto;text-rendering:auto;enable-background:accumulate" />
        <path
           sodipodi:nodetypes="ccsscc"
           inkscape:connector-curvature="0"
           id="path10930-4-8-6-9"
           d="m -265.18465,641.72626 c -0.29975,0.005 -0.53918,0.25102 -0.53516,0.55078 v 4.23273 c 0,0.72526 1.08789,0.72526 1.08789,0 v -4.23273 c 0.004,-0.30665 -0.24611,-0.55599 -0.55273,-0.55078 z"
           style="color:#000000;font-style:normal;font-variant:normal;font-weight:normal;font-stretch:normal;font-size:medium;line-height:normal;font-family:sans-serif;font-variant-ligatures:normal;font-variant-position:normal;font-variant-caps:normal;font-variant-numeric:normal;font-variant-alternates:normal;font-feature-settings:normal;text-indent:0;text-align:start;text-decoration:none;text-decoration-line:none;text-decoration-style:solid;text-decoration-color:#000000;letter-spacing:normal;word-spacing:normal;text-transform:none;writing-mode:lr-tb;direction:ltr;text-orientation:mixed;dominant-baseline:auto;baseline-shift:baseline;text-anchor:start;white-space:normal;shape-padding:0;clip-rule:nonzero;display:inline;overflow:visible;visibility:visible;opacity:1;isolation:auto;mix-blend-mode:normal;color-interpolation:sRGB;color-interpolation-filters:linearRGB;solid-color:#000000;solid-opacity:1;vector-effect:none;fill:#2b2e3c;fill-opacity:1;fill-rule:evenodd;stroke:none;stroke-width:1.08700001;stroke-linecap:round;stroke-linejoin:round;stroke-miterlimit:4;stroke-dasharray:none;stroke-dashoffset:0;stroke-opacity:1;color-rendering:auto;image-rendering:auto;shape-rendering:auto;text-rendering:auto;enable-background:accumulate" />
      </g>
    </g>
  </g>
</svg>
