<?xml version="1.0" encoding="UTF-8" standalone="no"?>
<!-- Created with Inkscape (http://www.inkscape.org/) -->

<svg
   xmlns:dc="http://purl.org/dc/elements/1.1/"
   xmlns:cc="http://creativecommons.org/ns#"
   xmlns:rdf="http://www.w3.org/1999/02/22-rdf-syntax-ns#"
   xmlns:svg="http://www.w3.org/2000/svg"
   xmlns="http://www.w3.org/2000/svg"
   xmlns:sodipodi="http://sodipodi.sourceforge.net/DTD/sodipodi-0.dtd"
   xmlns:inkscape="http://www.inkscape.org/namespaces/inkscape"
   width="300"
   height="300"
   viewBox="0 0 79.374996 79.375002"
   version="1.1"
   id="svg2822"
   inkscape:version="0.92.2 2405546, 2018-03-11"
   sodipodi:docname="see-through-videofeed.svg"
   inkscape:export-filename="/home/bastian/Sync/VRAR Requirements Visualization/virtual-reality-icons repository/900px/see-through-videofeed.png"
   inkscape:export-xdpi="288"
   inkscape:export-ydpi="288">
  <defs
     id="defs2816">
    <clipPath
       clipPathUnits="userSpaceOnUse"
       id="clipPath6262-7">
      <rect
         y="220.75"
         x="26.849981"
         height="6.3750005"
         width="3.8250003"
         id="rect6264-2"
         style="color:#bebebe;display:inline;overflow:visible;visibility:visible;fill:#bebebe;fill-opacity:1;fill-rule:nonzero;stroke:none;stroke-width:2;marker:none" />
    </clipPath>
    <clipPath
       clipPathUnits="userSpaceOnUse"
       id="clipPath6258-2">
      <rect
         y="221.28162"
         x="26.965673"
         height="5.3129687"
         width="2.8977275"
         id="rect6260-6"
         style="color:#bebebe;display:inline;overflow:visible;visibility:visible;fill:#bebebe;fill-opacity:1;fill-rule:nonzero;stroke:none;stroke-width:2;marker:none" />
    </clipPath>
    <clipPath
       clipPathUnits="userSpaceOnUse"
       id="clipPath6254-1">
      <rect
         y="221.50153"
         x="26.998718"
         height="4.8783236"
         width="1.876245"
         id="rect6256-0"
         style="color:#bebebe;display:inline;overflow:visible;visibility:visible;fill:#bebebe;fill-opacity:1;stroke:none;stroke-width:2;marker:none" />
    </clipPath>
    <clipPath
       clipPathUnits="userSpaceOnUse"
       id="clipPath6262-7-6">
      <rect
         y="220.75"
         x="26.849981"
         height="6.3750005"
         width="3.8250003"
         id="rect6264-2-2"
         style="color:#bebebe;display:inline;overflow:visible;visibility:visible;fill:#bebebe;fill-opacity:1;fill-rule:nonzero;stroke:none;stroke-width:2;marker:none" />
    </clipPath>
    <clipPath
       clipPathUnits="userSpaceOnUse"
       id="clipPath6258-2-9">
      <rect
         y="221.28162"
         x="26.965673"
         height="5.3129687"
         width="2.8977275"
         id="rect6260-6-1"
         style="color:#bebebe;display:inline;overflow:visible;visibility:visible;fill:#bebebe;fill-opacity:1;fill-rule:nonzero;stroke:none;stroke-width:2;marker:none" />
    </clipPath>
    <clipPath
       clipPathUnits="userSpaceOnUse"
       id="clipPath6254-1-2">
      <rect
         y="221.50153"
         x="26.998718"
         height="4.8783236"
         width="1.876245"
         id="rect6256-0-7"
         style="color:#bebebe;display:inline;overflow:visible;visibility:visible;fill:#bebebe;fill-opacity:1;stroke:none;stroke-width:2;marker:none" />
    </clipPath>
    <clipPath
       clipPathUnits="userSpaceOnUse"
       id="clipPath6262-7-6-9">
      <rect
         y="220.75"
         x="26.849981"
         height="6.3750005"
         width="3.8250003"
         id="rect6264-2-2-3"
         style="color:#bebebe;display:inline;overflow:visible;visibility:visible;fill:#bebebe;fill-opacity:1;fill-rule:nonzero;stroke:none;stroke-width:2;marker:none" />
    </clipPath>
    <clipPath
       clipPathUnits="userSpaceOnUse"
       id="clipPath6258-2-9-1">
      <rect
         y="221.28162"
         x="26.965673"
         height="5.3129687"
         width="2.8977275"
         id="rect6260-6-1-9"
         style="color:#bebebe;display:inline;overflow:visible;visibility:visible;fill:#bebebe;fill-opacity:1;fill-rule:nonzero;stroke:none;stroke-width:2;marker:none" />
    </clipPath>
    <clipPath
       clipPathUnits="userSpaceOnUse"
       id="clipPath6254-1-2-4">
      <rect
         y="221.50153"
         x="26.998718"
         height="4.8783236"
         width="1.876245"
         id="rect6256-0-7-7"
         style="color:#bebebe;display:inline;overflow:visible;visibility:visible;fill:#bebebe;fill-opacity:1;stroke:none;stroke-width:2;marker:none" />
    </clipPath>
    <clipPath
       clipPathUnits="userSpaceOnUse"
       id="clipPath6254-1-2-4-6">
      <rect
         y="221.50153"
         x="26.998718"
         height="4.8783236"
         width="1.876245"
         id="rect6256-0-7-7-1"
         style="color:#bebebe;display:inline;overflow:visible;visibility:visible;fill:#bebebe;fill-opacity:1;stroke:none;stroke-width:2;marker:none" />
    </clipPath>
    <clipPath
       clipPathUnits="userSpaceOnUse"
       id="clipPath6258-2-9-1-5">
      <rect
         y="221.28162"
         x="26.965673"
         height="5.3129687"
         width="2.8977275"
         id="rect6260-6-1-9-5"
         style="color:#bebebe;display:inline;overflow:visible;visibility:visible;fill:#bebebe;fill-opacity:1;fill-rule:nonzero;stroke:none;stroke-width:2;marker:none" />
    </clipPath>
    <clipPath
       clipPathUnits="userSpaceOnUse"
       id="clipPath6262-7-6-9-4">
      <rect
         y="220.75"
         x="26.849981"
         height="6.3750005"
         width="3.8250003"
         id="rect6264-2-2-3-7"
         style="color:#bebebe;display:inline;overflow:visible;visibility:visible;fill:#bebebe;fill-opacity:1;fill-rule:nonzero;stroke:none;stroke-width:2;marker:none" />
    </clipPath>
    <clipPath
       clipPathUnits="userSpaceOnUse"
       id="clipPath6254-1-2-8">
      <rect
         y="221.50153"
         x="26.998718"
         height="4.8783236"
         width="1.876245"
         id="rect6256-0-7-8"
         style="color:#bebebe;display:inline;overflow:visible;visibility:visible;fill:#bebebe;fill-opacity:1;stroke:none;stroke-width:2;marker:none" />
    </clipPath>
    <clipPath
       clipPathUnits="userSpaceOnUse"
       id="clipPath6258-2-9-4">
      <rect
         y="221.28162"
         x="26.965673"
         height="5.3129687"
         width="2.8977275"
         id="rect6260-6-1-3"
         style="color:#bebebe;display:inline;overflow:visible;visibility:visible;fill:#bebebe;fill-opacity:1;fill-rule:nonzero;stroke:none;stroke-width:2;marker:none" />
    </clipPath>
    <clipPath
       clipPathUnits="userSpaceOnUse"
       id="clipPath6262-7-6-1">
      <rect
         y="220.75"
         x="26.849981"
         height="6.3750005"
         width="3.8250003"
         id="rect6264-2-2-4"
         style="color:#bebebe;display:inline;overflow:visible;visibility:visible;fill:#bebebe;fill-opacity:1;fill-rule:nonzero;stroke:none;stroke-width:2;marker:none" />
    </clipPath>
  </defs>
  <sodipodi:namedview
     id="base"
     pagecolor="#dddddd"
     bordercolor="#666666"
     borderopacity="1.0"
     inkscape:pageopacity="0"
     inkscape:pageshadow="2"
     inkscape:zoom="2.0000001"
     inkscape:cx="59.401619"
     inkscape:cy="175.70531"
     inkscape:document-units="mm"
     inkscape:current-layer="layer1"
     showgrid="false"
     inkscape:window-width="1920"
     inkscape:window-height="1016"
     inkscape:window-x="0"
     inkscape:window-y="27"
     inkscape:window-maximized="1"
     units="px"
     inkscape:snap-global="true"
     fit-margin-top="5"
     fit-margin-left="5"
     fit-margin-right="5"
     fit-margin-bottom="5"
     inkscape:snap-grids="true">
    <inkscape:grid
       type="xygrid"
       id="grid3470"
       originx="-180.98583"
       originy="-153.56708"
       empspacing="4" />
  </sodipodi:namedview>
  <metadata
     id="metadata2819">
    <rdf:RDF>
      <cc:Work
         rdf:about="">
        <dc:format>image/svg+xml</dc:format>
        <dc:type
           rdf:resource="http://purl.org/dc/dcmitype/StillImage" />
        <dc:title></dc:title>
      </cc:Work>
    </rdf:RDF>
  </metadata>
  <g
     inkscape:label="Layer 1"
     inkscape:groupmode="layer"
     id="layer1"
     transform="translate(-180.98585,-64.05788)">
    <g
       transform="translate(-4.2333367,-1.0583323)"
       id="g5237">
      <g
         transform="translate(-3.2154311,0.29086048)"
         id="g4300">
        <path
           style="opacity:1;fill:none;fill-opacity:1;fill-rule:evenodd;stroke:none;stroke-width:1;stroke-linecap:square;stroke-linejoin:miter;stroke-miterlimit:4;stroke-dasharray:none;stroke-dashoffset:0;stroke-opacity:1"
           d="m 208.73702,94.213321 c -0.47036,0.01241 -1.39641,0.514051 -2.1115,1.200959 -0.71638,0.688142 -1.20303,1.581425 -1.20303,1.904794 v 16.144236 c 0,0.30466 0.49615,1.09438 1.22628,1.69137 0.73012,0.59699 1.67006,1.01751 2.07998,1.01751 h 0.50023 40.88846 c 1.04591,0 1.87327,-0.82688 1.87327,-1.87276 V 96.084525 c 0,-1.045889 -0.82736,-1.871204 -1.87327,-1.871204 z"
           id="rect2278-9-8-37-1-9"
           inkscape:connector-curvature="0" />
        <path
           style="opacity:1;fill:none;fill-opacity:1;fill-rule:evenodd;stroke:none;stroke-width:3.44200492;stroke-linecap:square;stroke-linejoin:miter;stroke-miterlimit:4;stroke-dasharray:none;stroke-dashoffset:0;stroke-opacity:1"
           d="m 208.72875,94.214355 c -0.47263,0.01744 -1.39189,0.516615 -2.10323,1.199925 -0.71638,0.688142 -1.20303,1.581425 -1.20303,1.904794 v 16.144236 c 0,0.30466 0.49615,1.09438 1.22628,1.69137 0.73012,0.59699 1.67006,1.01751 2.07998,1.01751 0.007,-0.45466 2.6e-4,-20.996828 0,-21.957835 z"
           id="rect2278-9-5-5-3"
           inkscape:connector-curvature="0" />
        <path
           style="opacity:1;fill:#2b2e3c;fill-opacity:1;fill-rule:evenodd;stroke:none;stroke-width:0.83340949;stroke-linecap:square;stroke-linejoin:miter;stroke-miterlimit:4;stroke-dasharray:none;stroke-dashoffset:0;stroke-opacity:1"
           d="m 207.3577,116.79202 c 1.2e-4,11.19473 9.07534,21.16723 20.27008,21.16708 11.18131,-7.9e-4 20.25011,-9.98578 20.26811,-21.16708 -13.5105,-0.14753 -27.02899,0.25034 -40.53819,0 z"
           id="path2039-7-92-9-6"
           inkscape:connector-curvature="0"
           sodipodi:nodetypes="cccc" />
        <path
           transform="matrix(0.26458333,0,0,0.26458333,180.98585,64.05788)"
           sodipodi:nodetypes="ccccc"
           inkscape:connector-curvature="0"
           style="opacity:1;fill:#2b2e3c;fill-opacity:1;fill-rule:evenodd;stroke:none;stroke-width:7.55905485;stroke-linecap:round;stroke-linejoin:miter;stroke-miterlimit:4;stroke-dasharray:none;stroke-dashoffset:0;stroke-opacity:1"
           d="m 132.11188,51.311696 c -3.34507,2.324589 -8,8.000001 -8,12.000001 l 20,5.657546 c 1.67696,-0.641915 3.96569,-1.000545 5.96429,-1.657546 z"
           id="path9205-9-6-2" />
        <path
           transform="matrix(0.26458333,0,0,0.26458333,180.98585,64.05788)"
           sodipodi:nodetypes="cccccc"
           inkscape:connector-curvature="0"
           style="opacity:1;fill:#2b2e3c;fill-opacity:1;fill-rule:evenodd;stroke:none;stroke-width:7.06252146;stroke-linecap:round;stroke-linejoin:miter;stroke-miterlimit:4;stroke-dasharray:none;stroke-dashoffset:0;stroke-opacity:1"
           d="m 136.18805,23.949711 17.58008,41.667969 c 0.77148,-0.21525 1.55571,-0.417787 2.34375,-0.615234 l -4,-33.69075 c -2.27246,-3.936011 -8.38363,-7.686336 -12,-7.992844 -1.31111,-0.118008 -2.83211,0.13303 -3.92383,0.630859 z"
           id="path9205-2-7-7-6" />
      </g>
      <path
         inkscape:connector-curvature="0"
         id="path5038"
         d="M 246.59169,96.974959 H 207.43335"
         style="opacity:1;fill:#2b2e3c;fill-opacity:1;fill-rule:evenodd;stroke:none;stroke-width:2.11666656;stroke-linecap:butt;stroke-linejoin:bevel;stroke-miterlimit:4;stroke-dasharray:none;stroke-dashoffset:6.99212599;stroke-opacity:1" />
      <path
         style="opacity:1;fill:#2b2e3c;fill-opacity:1;fill-rule:evenodd;stroke:none;stroke-width:7.99999952;stroke-linecap:butt;stroke-linejoin:bevel;stroke-miterlimit:4;stroke-dasharray:none;stroke-dashoffset:6.99212599;stroke-opacity:1"
         d="M 79.958984 112.41016 C 71.094972 112.41016 63.958984 119.54615 63.958984 128.41016 L 63.958984 176.41016 C 63.958984 185.27417 71.094972 192.41016 79.958984 192.41016 L 231.95898 192.41016 C 236.39101 192.41016 239.95898 188.84218 239.95898 184.41016 L 239.95898 120.41016 C 239.95898 115.97815 236.39101 112.41016 231.95898 112.41016 L 79.958984 112.41016 z M 77.050781 120.4082 L 232.1875 120.4082 C 237.52211 120.4082 237.52211 128.41016 232.1875 128.41016 L 79.958984 128.41016 L 75.958984 132.41016 C 71.873277 135.85229 66.717785 129.71227 70.814453 126.2832 L 77.050781 120.4082 z M 215.95508 132.41016 C 224.68556 132.41016 231.97852 139.88667 231.97852 148.61719 C 231.97852 157.34767 224.86134 164.4707 216.13086 164.4707 C 207.40038 164.4707 200.27539 157.34767 200.27539 148.61719 C 200.27539 139.88667 207.2246 132.41016 215.95508 132.41016 z M 215.95508 136.52734 C 209.447 136.52734 204.38477 142.10907 204.38477 148.61719 C 204.38477 155.12527 209.62278 160.35547 216.13086 160.35547 C 222.63898 160.35547 227.86914 155.12527 227.86914 148.61719 C 227.86914 142.10907 222.4632 136.52734 215.95508 136.52734 z M 220.01562 140.54492 A 3.9431078 3.8666124 0 0 1 223.95898 144.41016 A 3.9431078 3.8666124 0 0 1 220.01562 148.27734 A 3.9431078 3.8666124 0 0 1 216.07227 144.41016 A 3.9431078 3.8666124 0 0 1 220.01562 140.54492 z M 73.615234 171.4043 C 74.388526 171.45683 75.192912 171.76484 75.958984 172.41016 L 79.958984 176.41016 L 232.1875 176.41016 C 237.52211 176.41016 237.52211 184.41211 232.1875 184.41211 L 77.050781 184.41211 L 70.814453 178.53711 C 67.485937 175.75099 70.264343 171.17601 73.615234 171.4043 z "
         transform="matrix(0.26458333,0,0,0.26458333,185.21919,65.116212)"
         id="rect5016" />
      <path
         inkscape:connector-curvature="0"
         id="path5174"
         transform="matrix(0.26458333,0,0,0.26458333,180.98585,64.05788)"
         d="m 164.40234,68.701172 c -6.83248,10e-7 -13.45157,0.906209 -19.75195,2.591797 1.11939,3.021208 2.58667,7.128976 4.35547,12.589843 3.10233,9.577947 6.02558,20.289138 6.79492,28.527348 h 29.67774 c -0.74744,-7.50588 -3.43163,-17.978806 -6.95313,-27.242191 -2.0643,-5.430236 -4.33271,-10.363328 -6.41406,-13.833985 -0.54213,-0.903991 -1.07251,-1.701164 -1.57227,-2.382812 -2.02498,-0.161335 -4.07017,-0.25 -6.13672,-0.25 z m 11.28907,0.832031 c 2.23011,3.770209 4.49933,8.745757 6.57617,14.208985 3.62712,9.541309 6.66232,20.400392 7.47265,28.667972 h 43.63868 C 222.70167,89.829328 201.26967,73.330133 175.69141,69.533203 Z m -34.86719,2.896485 c -20.06498,6.520402 -36.4829,21.12536 -45.398439,39.980472 h 56.554689 c -0.87808,-7.49062 -3.80508,-18.118515 -6.77735,-27.294926 -1.57848,-4.873273 -3.1109,-9.205223 -4.3789,-12.685546 z"
         style="opacity:1;fill:#2b2e3c;fill-opacity:1;fill-rule:evenodd;stroke:none;stroke-width:3.99999976;stroke-linecap:butt;stroke-linejoin:bevel;stroke-miterlimit:4;stroke-dasharray:none;stroke-dashoffset:6.99212599;stroke-opacity:1" />
    </g>
  </g>
</svg>
