<?xml version="1.0" encoding="UTF-8" standalone="no"?>
<!-- Created with Inkscape (http://www.inkscape.org/) -->

<svg
   xmlns:dc="http://purl.org/dc/elements/1.1/"
   xmlns:cc="http://creativecommons.org/ns#"
   xmlns:rdf="http://www.w3.org/1999/02/22-rdf-syntax-ns#"
   xmlns:svg="http://www.w3.org/2000/svg"
   xmlns="http://www.w3.org/2000/svg"
   xmlns:sodipodi="http://sodipodi.sourceforge.net/DTD/sodipodi-0.dtd"
   xmlns:inkscape="http://www.inkscape.org/namespaces/inkscape"
   width="300"
   height="300"
   viewBox="0 0 79.374996 79.375002"
   version="1.1"
   id="svg2822"
   inkscape:version="0.92.2 2405546, 2018-03-11"
   sodipodi:docname="see-through-optical.svg"
   inkscape:export-filename="/home/bastian/Sync/VRAR Requirements Visualization/virtual-reality-icons repository/900px/see-through-optical.png"
   inkscape:export-xdpi="288"
   inkscape:export-ydpi="288">
  <defs
     id="defs2816">
    <clipPath
       clipPathUnits="userSpaceOnUse"
       id="clipPath6262-7">
      <rect
         y="220.75"
         x="26.849981"
         height="6.3750005"
         width="3.8250003"
         id="rect6264-2"
         style="color:#bebebe;display:inline;overflow:visible;visibility:visible;fill:#bebebe;fill-opacity:1;fill-rule:nonzero;stroke:none;stroke-width:2;marker:none" />
    </clipPath>
    <clipPath
       clipPathUnits="userSpaceOnUse"
       id="clipPath6258-2">
      <rect
         y="221.28162"
         x="26.965673"
         height="5.3129687"
         width="2.8977275"
         id="rect6260-6"
         style="color:#bebebe;display:inline;overflow:visible;visibility:visible;fill:#bebebe;fill-opacity:1;fill-rule:nonzero;stroke:none;stroke-width:2;marker:none" />
    </clipPath>
    <clipPath
       clipPathUnits="userSpaceOnUse"
       id="clipPath6254-1">
      <rect
         y="221.50153"
         x="26.998718"
         height="4.8783236"
         width="1.876245"
         id="rect6256-0"
         style="color:#bebebe;display:inline;overflow:visible;visibility:visible;fill:#bebebe;fill-opacity:1;stroke:none;stroke-width:2;marker:none" />
    </clipPath>
    <clipPath
       clipPathUnits="userSpaceOnUse"
       id="clipPath6262-7-6">
      <rect
         y="220.75"
         x="26.849981"
         height="6.3750005"
         width="3.8250003"
         id="rect6264-2-2"
         style="color:#bebebe;display:inline;overflow:visible;visibility:visible;fill:#bebebe;fill-opacity:1;fill-rule:nonzero;stroke:none;stroke-width:2;marker:none" />
    </clipPath>
    <clipPath
       clipPathUnits="userSpaceOnUse"
       id="clipPath6258-2-9">
      <rect
         y="221.28162"
         x="26.965673"
         height="5.3129687"
         width="2.8977275"
         id="rect6260-6-1"
         style="color:#bebebe;display:inline;overflow:visible;visibility:visible;fill:#bebebe;fill-opacity:1;fill-rule:nonzero;stroke:none;stroke-width:2;marker:none" />
    </clipPath>
    <clipPath
       clipPathUnits="userSpaceOnUse"
       id="clipPath6254-1-2">
      <rect
         y="221.50153"
         x="26.998718"
         height="4.8783236"
         width="1.876245"
         id="rect6256-0-7"
         style="color:#bebebe;display:inline;overflow:visible;visibility:visible;fill:#bebebe;fill-opacity:1;stroke:none;stroke-width:2;marker:none" />
    </clipPath>
    <clipPath
       clipPathUnits="userSpaceOnUse"
       id="clipPath6262-7-6-9">
      <rect
         y="220.75"
         x="26.849981"
         height="6.3750005"
         width="3.8250003"
         id="rect6264-2-2-3"
         style="color:#bebebe;display:inline;overflow:visible;visibility:visible;fill:#bebebe;fill-opacity:1;fill-rule:nonzero;stroke:none;stroke-width:2;marker:none" />
    </clipPath>
    <clipPath
       clipPathUnits="userSpaceOnUse"
       id="clipPath6258-2-9-1">
      <rect
         y="221.28162"
         x="26.965673"
         height="5.3129687"
         width="2.8977275"
         id="rect6260-6-1-9"
         style="color:#bebebe;display:inline;overflow:visible;visibility:visible;fill:#bebebe;fill-opacity:1;fill-rule:nonzero;stroke:none;stroke-width:2;marker:none" />
    </clipPath>
    <clipPath
       clipPathUnits="userSpaceOnUse"
       id="clipPath6254-1-2-4">
      <rect
         y="221.50153"
         x="26.998718"
         height="4.8783236"
         width="1.876245"
         id="rect6256-0-7-7"
         style="color:#bebebe;display:inline;overflow:visible;visibility:visible;fill:#bebebe;fill-opacity:1;stroke:none;stroke-width:2;marker:none" />
    </clipPath>
    <clipPath
       clipPathUnits="userSpaceOnUse"
       id="clipPath6254-1-2-4-6">
      <rect
         y="221.50153"
         x="26.998718"
         height="4.8783236"
         width="1.876245"
         id="rect6256-0-7-7-1"
         style="color:#bebebe;display:inline;overflow:visible;visibility:visible;fill:#bebebe;fill-opacity:1;stroke:none;stroke-width:2;marker:none" />
    </clipPath>
    <clipPath
       clipPathUnits="userSpaceOnUse"
       id="clipPath6258-2-9-1-5">
      <rect
         y="221.28162"
         x="26.965673"
         height="5.3129687"
         width="2.8977275"
         id="rect6260-6-1-9-5"
         style="color:#bebebe;display:inline;overflow:visible;visibility:visible;fill:#bebebe;fill-opacity:1;fill-rule:nonzero;stroke:none;stroke-width:2;marker:none" />
    </clipPath>
    <clipPath
       clipPathUnits="userSpaceOnUse"
       id="clipPath6262-7-6-9-4">
      <rect
         y="220.75"
         x="26.849981"
         height="6.3750005"
         width="3.8250003"
         id="rect6264-2-2-3-7"
         style="color:#bebebe;display:inline;overflow:visible;visibility:visible;fill:#bebebe;fill-opacity:1;fill-rule:nonzero;stroke:none;stroke-width:2;marker:none" />
    </clipPath>
    <clipPath
       clipPathUnits="userSpaceOnUse"
       id="clipPath6254-1-2-8">
      <rect
         y="221.50153"
         x="26.998718"
         height="4.8783236"
         width="1.876245"
         id="rect6256-0-7-8"
         style="color:#bebebe;display:inline;overflow:visible;visibility:visible;fill:#bebebe;fill-opacity:1;stroke:none;stroke-width:2;marker:none" />
    </clipPath>
    <clipPath
       clipPathUnits="userSpaceOnUse"
       id="clipPath6258-2-9-4">
      <rect
         y="221.28162"
         x="26.965673"
         height="5.3129687"
         width="2.8977275"
         id="rect6260-6-1-3"
         style="color:#bebebe;display:inline;overflow:visible;visibility:visible;fill:#bebebe;fill-opacity:1;fill-rule:nonzero;stroke:none;stroke-width:2;marker:none" />
    </clipPath>
    <clipPath
       clipPathUnits="userSpaceOnUse"
       id="clipPath6262-7-6-1">
      <rect
         y="220.75"
         x="26.849981"
         height="6.3750005"
         width="3.8250003"
         id="rect6264-2-2-4"
         style="color:#bebebe;display:inline;overflow:visible;visibility:visible;fill:#bebebe;fill-opacity:1;fill-rule:nonzero;stroke:none;stroke-width:2;marker:none" />
    </clipPath>
  </defs>
  <sodipodi:namedview
     id="base"
     pagecolor="#dddddd"
     bordercolor="#666666"
     borderopacity="1.0"
     inkscape:pageopacity="0"
     inkscape:pageshadow="2"
     inkscape:zoom="2.0000001"
     inkscape:cx="76.801007"
     inkscape:cy="185.84371"
     inkscape:document-units="mm"
     inkscape:current-layer="layer1"
     showgrid="false"
     inkscape:window-width="1920"
     inkscape:window-height="1016"
     inkscape:window-x="0"
     inkscape:window-y="27"
     inkscape:window-maximized="1"
     units="px"
     inkscape:snap-global="true"
     fit-margin-top="5"
     fit-margin-left="5"
     fit-margin-right="5"
     fit-margin-bottom="5"
     inkscape:snap-grids="true">
    <inkscape:grid
       type="xygrid"
       id="grid3470"
       originx="-180.98583"
       originy="-153.56708"
       empspacing="4" />
  </sodipodi:namedview>
  <metadata
     id="metadata2819">
    <rdf:RDF>
      <cc:Work
         rdf:about="">
        <dc:format>image/svg+xml</dc:format>
        <dc:type
           rdf:resource="http://purl.org/dc/dcmitype/StillImage" />
        <dc:title></dc:title>
      </cc:Work>
    </rdf:RDF>
  </metadata>
  <g
     inkscape:label="Layer 1"
     inkscape:groupmode="layer"
     id="layer1"
     transform="translate(-180.98585,-64.05788)">
    <path
       style="opacity:1;fill:#3d3f4c;fill-opacity:1;fill-rule:evenodd;stroke:none;stroke-width:3.14989424;stroke-linecap:square;stroke-linejoin:miter;stroke-miterlimit:4;stroke-dasharray:none;stroke-dashoffset:0;stroke-opacity:1"
       d="M 76.765625 112.41016 L 76.238281 121.17383 L 77.050781 120.4082 L 218.60547 120.4082 L 218.02344 112.57617 L 76.765625 112.41016 z M 79.958984 128.41016 L 75.958984 132.41016 C 75.822718 132.52496 75.683185 132.60137 75.544922 132.69531 L 73.214844 171.41992 C 74.10889 171.37913 75.058341 171.65138 75.958984 172.41016 L 79.958984 176.41016 L 222.76953 176.41016 L 219.20117 128.41016 L 79.958984 128.41016 z M 103.95898 148.41016 L 111.4375 148.41016 C 111.88741 148.41201 112.3212 148.57547 112.66211 148.86914 C 114.35749 150.31715 115.33828 152.43448 115.3418 154.66406 L 115.3418 154.67188 C 115.3418 158.86874 111.89803 162.30454 107.70117 162.30469 C 103.50416 162.3048 100.06051 158.86893 100.06055 154.67188 L 100.06055 154.66406 C 100.06217 152.43569 101.04179 150.31855 102.73438 148.86914 C 103.07533 148.57547 103.50907 148.41201 103.95898 148.41016 z M 183.95898 148.41016 L 191.4375 148.41016 C 191.88741 148.41201 192.3212 148.57547 192.66211 148.86914 C 194.35749 150.31715 195.33828 152.43448 195.3418 154.66406 L 195.3418 154.67188 C 195.3418 158.86873 191.89803 162.30454 187.70117 162.30469 C 183.50416 162.3048 180.06051 158.86892 180.06055 154.67188 L 180.06055 154.66406 C 180.06217 152.43569 181.04179 150.31855 182.73438 148.86914 C 183.07532 148.57547 183.50907 148.41201 183.95898 148.41016 z M 72.681641 180.29492 L 71.958984 192.28906 L 223.95898 192.41016 L 223.36523 184.41211 L 77.050781 184.41211 L 72.681641 180.29492 z "
       transform="matrix(0.26458333,0,0,0.26458333,180.98585,64.05788)"
       id="path2039-7-92-9-53-8-2-2-0-5" />
    <path
       style="opacity:1;fill:#2b2e3c;fill-opacity:1;fill-rule:evenodd;stroke:none;stroke-width:3.99999976;stroke-linecap:butt;stroke-linejoin:bevel;stroke-miterlimit:4;stroke-dasharray:none;stroke-dashoffset:6.99212599;stroke-opacity:1"
       d="M 79.958984 112.41016 C 71.094972 112.41016 63.958984 119.54615 63.958984 128.41016 L 63.958984 176.41016 C 63.958984 185.27417 71.094972 192.41016 79.958984 192.41016 L 79.958984 184.41211 L 77.050781 184.41211 L 70.814453 178.53711 C 66.717785 175.10806 71.873277 168.96803 75.958984 172.41016 L 79.958984 176.41016 C 79.958991 161.05016 79.958991 141.61015 79.958984 128.41016 L 75.958984 132.41016 C 71.873277 135.85229 66.717785 129.71226 70.814453 126.2832 L 77.050781 120.4082 L 79.958984 120.4082 C 79.958982 119.17877 79.958988 112.41016 79.958984 112.41016 z "
       transform="matrix(0.26458333,0,0,0.26458333,180.98585,64.05788)"
       id="rect5016-0-9" />
    <path
       style="opacity:1;fill:none;fill-opacity:1;fill-rule:evenodd;stroke:#2b2e3c;stroke-width:1.05833328;stroke-linecap:butt;stroke-linejoin:bevel;stroke-miterlimit:4;stroke-dasharray:none;stroke-dashoffset:6.99212599;stroke-opacity:1"
       d="m 202.14166,93.799735 c -2.34527,0 -4.23333,1.888064 -4.23333,4.233333 v 12.700002 c 0,2.34527 1.88806,4.23333 4.23333,4.23333 h 40.21667 c 1.17264,0 2.11667,-0.94403 2.11667,-2.11667 V 95.916402 c 0,-1.172636 -0.94403,-2.116667 -2.11667,-2.116667 z"
       id="rect5016-0"
       inkscape:connector-curvature="0"
       sodipodi:nodetypes="sssssssss" />
    <path
       style="opacity:0.5;fill:#2b2e3c;fill-opacity:1;fill-rule:evenodd;stroke:none;stroke-width:7.99999952;stroke-linecap:butt;stroke-linejoin:bevel;stroke-miterlimit:4;stroke-dasharray:none;stroke-dashoffset:6.99212599;stroke-opacity:1"
       d="M 79.958984 112.41016 C 71.094972 112.41016 63.958984 119.54614 63.958984 128.41016 L 63.958984 176.41016 C 63.958984 185.27417 71.094972 192.41016 79.958984 192.41016 L 231.95898 192.41016 C 236.39101 192.41016 239.95898 188.84218 239.95898 184.41016 L 239.95898 120.41016 C 239.95898 115.97815 236.39101 112.41016 231.95898 112.41016 L 79.958984 112.41016 z M 77.050781 120.4082 L 232.1875 120.4082 C 237.52211 120.4082 237.52211 128.41016 232.1875 128.41016 L 79.958984 128.41016 L 75.958984 132.41016 C 71.873277 135.85228 66.717785 129.71227 70.814453 126.2832 L 77.050781 120.4082 z M 103.95898 148.41016 L 111.4375 148.41016 C 111.88741 148.41201 112.3212 148.57547 112.66211 148.86914 C 114.35749 150.31715 115.33828 152.43448 115.3418 154.66406 L 115.3418 154.67188 C 115.3418 158.86874 111.89803 162.30454 107.70117 162.30469 C 103.50416 162.3048 100.06051 158.86893 100.06055 154.67188 L 100.06055 154.66406 C 100.06217 152.43569 101.04179 150.31855 102.73438 148.86914 C 103.07533 148.57547 103.50907 148.41201 103.95898 148.41016 z M 183.95898 148.41016 L 191.4375 148.41016 C 191.88741 148.41201 192.3212 148.57547 192.66211 148.86914 C 194.35749 150.31715 195.33828 152.43448 195.3418 154.66406 L 195.3418 154.67188 C 195.3418 158.86873 191.89803 162.30454 187.70117 162.30469 C 183.50416 162.3048 180.06051 158.86892 180.06055 154.67188 L 180.06055 154.66406 C 180.06217 152.43569 181.04179 150.31855 182.73438 148.86914 C 183.07532 148.57547 183.50907 148.41201 183.95898 148.41016 z M 73.615234 171.4043 C 74.388526 171.45683 75.192912 171.76488 75.958984 172.41016 L 79.958984 176.41016 L 232.1875 176.41016 C 237.52211 176.41016 237.52211 184.41211 232.1875 184.41211 L 77.050781 184.41211 L 70.814453 178.53711 C 67.485937 175.75099 70.264343 171.17601 73.615234 171.4043 z "
       transform="matrix(0.26458333,0,0,0.26458333,180.98585,64.05788)"
       id="rect5016" />
    <g
       id="g4300"
       transform="translate(-7.4487678,-0.76747182)">
      <path
         inkscape:connector-curvature="0"
         id="rect2278-9-8-37-1-9"
         d="m 208.73702,94.213321 c -0.47036,0.01241 -1.39641,0.514051 -2.1115,1.200959 -0.71638,0.688142 -1.20303,1.581425 -1.20303,1.904794 v 16.144236 c 0,0.30466 0.49615,1.09438 1.22628,1.69137 0.73012,0.59699 1.67006,1.01751 2.07998,1.01751 h 0.50023 40.88846 c 1.04591,0 1.87327,-0.82688 1.87327,-1.87276 V 96.084525 c 0,-1.045889 -0.82736,-1.871204 -1.87327,-1.871204 z"
         style="opacity:1;fill:none;fill-opacity:1;fill-rule:evenodd;stroke:none;stroke-width:1;stroke-linecap:square;stroke-linejoin:miter;stroke-miterlimit:4;stroke-dasharray:none;stroke-dashoffset:0;stroke-opacity:1" />
      <path
         inkscape:connector-curvature="0"
         id="rect2278-9-5-5-3"
         d="m 208.72875,94.214355 c -0.47263,0.01744 -1.39189,0.516615 -2.10323,1.199925 -0.71638,0.688142 -1.20303,1.581425 -1.20303,1.904794 v 16.144236 c 0,0.30466 0.49615,1.09438 1.22628,1.69137 0.73012,0.59699 1.67006,1.01751 2.07998,1.01751 0.007,-0.45466 2.6e-4,-20.996828 0,-21.957835 z"
         style="opacity:1;fill:none;fill-opacity:1;fill-rule:evenodd;stroke:none;stroke-width:3.44200492;stroke-linecap:square;stroke-linejoin:miter;stroke-miterlimit:4;stroke-dasharray:none;stroke-dashoffset:0;stroke-opacity:1" />
      <path
         sodipodi:nodetypes="cccc"
         inkscape:connector-curvature="0"
         id="path2039-7-92-9-6"
         d="m 207.3577,117.3216 c 1.2e-4,11.19473 9.07534,20.90265 20.27008,20.9025 11.18131,-7.9e-4 20.25011,-9.7212 20.26811,-20.9025 -13.5105,-0.14753 -27.02899,0.25034 -40.53819,0 z"
         style="opacity:1;fill:#2b2e3c;fill-opacity:1;fill-rule:evenodd;stroke:none;stroke-width:0.83340949;stroke-linecap:square;stroke-linejoin:miter;stroke-miterlimit:4;stroke-dasharray:none;stroke-dashoffset:0;stroke-opacity:1" />
      <path
         id="path9205-9-6-2"
         d="m 132.11188,49.312545 c -3.34507,2.324589 -8,8.000001 -8,12.000001 l 20,5.657546 c 1.67696,-0.641915 3.96569,-1.000545 5.96429,-1.657546 z"
         style="opacity:1;fill:#2b2e3c;fill-opacity:1;fill-rule:evenodd;stroke:none;stroke-width:7.55905485;stroke-linecap:round;stroke-linejoin:miter;stroke-miterlimit:4;stroke-dasharray:none;stroke-dashoffset:0;stroke-opacity:1"
         inkscape:connector-curvature="0"
         sodipodi:nodetypes="ccccc"
         transform="matrix(0.26458333,0,0,0.26458333,180.98585,64.05788)" />
      <path
         id="path9205-2-7-7-6"
         d="m 136.18805,21.95056 17.58008,41.667969 c 0.77148,-0.21525 1.55571,-0.417787 2.34375,-0.615234 l -4,-33.69075 c -2.27246,-3.936011 -8.38363,-7.686336 -12,-7.992844 -1.31111,-0.118008 -2.83211,0.13303 -3.92383,0.630859 z"
         style="opacity:1;fill:#2b2e3c;fill-opacity:1;fill-rule:evenodd;stroke:none;stroke-width:7.06252146;stroke-linecap:round;stroke-linejoin:miter;stroke-miterlimit:4;stroke-dasharray:none;stroke-dashoffset:0;stroke-opacity:1"
         inkscape:connector-curvature="0"
         sodipodi:nodetypes="cccccc"
         transform="matrix(0.26458333,0,0,0.26458333,180.98585,64.05788)" />
    </g>
    <path
       style="opacity:1;fill:#2b2e3c;fill-opacity:1;fill-rule:evenodd;stroke:none;stroke-width:2.11666656;stroke-linecap:butt;stroke-linejoin:bevel;stroke-miterlimit:4;stroke-dasharray:none;stroke-dashoffset:6.99212599;stroke-opacity:1"
       d="M 242.35835,95.916627 H 203.20001"
       id="path5038"
       inkscape:connector-curvature="0" />
    <path
       style="opacity:1;fill:#2b2e3c;fill-opacity:1;fill-rule:evenodd;stroke:none;stroke-width:1.05833328;stroke-linecap:butt;stroke-linejoin:bevel;stroke-miterlimit:4;stroke-dasharray:none;stroke-dashoffset:6.99212599;stroke-opacity:1"
       d="m 220.25063,80.647791 c -1.80776,0 -3.55906,0.239768 -5.22604,0.685746 0.29617,0.799361 0.68439,1.886208 1.15239,3.331063 0.82082,2.534165 1.59426,5.368167 1.79782,7.54786 h 7.85223 c -0.19776,-1.98593 -0.90795,-4.756892 -1.83968,-7.207829 -0.54618,-1.43675 -1.14636,-2.741964 -1.69705,-3.660242 -0.14344,-0.239181 -0.28377,-0.4501 -0.416,-0.630452 -0.53577,-0.04269 -1.0769,-0.06615 -1.62367,-0.06615 z m 2.9869,0.220141 c 0.59005,0.997535 1.19045,2.313982 1.73994,3.759461 0.95968,2.524471 1.76274,5.397604 1.97714,7.585067 h 11.54607 c -2.82502,-5.974511 -8.49557,-10.339923 -15.26315,-11.344528 z m -9.22528,0.766362 c -5.30886,1.72519 -9.65277,5.589418 -12.01167,10.578166 h 14.96343 c -0.23233,-1.981893 -1.00676,-4.793857 -1.79317,-7.221782 -0.41764,-1.289387 -0.8231,-2.435549 -1.15859,-3.356384 z"
       id="path5174"
       inkscape:connector-curvature="0"
       sodipodi:nodetypes="cccccccccccccccccccc" />
    <path
       style="opacity:0.7;fill:#8692aa;fill-opacity:1;fill-rule:evenodd;stroke:none;stroke-width:5.59296799;stroke-linecap:round;stroke-linejoin:miter;stroke-miterlimit:4;stroke-dasharray:none;stroke-dashoffset:0;stroke-opacity:1"
       d="m 175.95907,128.41101 -23.66992,16 h 19.66992 l -44,32 h 32 l 44,-36 h -32 l 20,-12 z"
       transform="matrix(0.26458333,0,0,0.26458333,180.98585,64.05788)"
       id="path1137-7-4-9-1"
       inkscape:connector-curvature="0"
       sodipodi:nodetypes="ccccccccc" />
  </g>
</svg>
