<?xml version="1.0" encoding="UTF-8" standalone="no"?>
<!-- Created with Inkscape (http://www.inkscape.org/) -->

<svg
   xmlns:dc="http://purl.org/dc/elements/1.1/"
   xmlns:cc="http://creativecommons.org/ns#"
   xmlns:rdf="http://www.w3.org/1999/02/22-rdf-syntax-ns#"
   xmlns:svg="http://www.w3.org/2000/svg"
   xmlns="http://www.w3.org/2000/svg"
   xmlns:sodipodi="http://sodipodi.sourceforge.net/DTD/sodipodi-0.dtd"
   xmlns:inkscape="http://www.inkscape.org/namespaces/inkscape"
   width="300"
   height="300"
   viewBox="0 0 79.374996 79.375002"
   version="1.1"
   id="svg2822"
   inkscape:version="0.92.2 2405546, 2018-03-11"
   sodipodi:docname="tracking-eye.svg"
   inkscape:export-filename="/home/bastian/Sync/VRAR Requirements Visualization/virtual-reality-icons repository/900px/tracking-eye.png"
   inkscape:export-xdpi="288"
   inkscape:export-ydpi="288">
  <defs
     id="defs2816">
    <clipPath
       clipPathUnits="userSpaceOnUse"
       id="clipPath6262-7">
      <rect
         y="220.75"
         x="26.849981"
         height="6.3750005"
         width="3.8250003"
         id="rect6264-2"
         style="color:#bebebe;display:inline;overflow:visible;visibility:visible;fill:#bebebe;fill-opacity:1;fill-rule:nonzero;stroke:none;stroke-width:2;marker:none" />
    </clipPath>
    <clipPath
       clipPathUnits="userSpaceOnUse"
       id="clipPath6258-2">
      <rect
         y="221.28162"
         x="26.965673"
         height="5.3129687"
         width="2.8977275"
         id="rect6260-6"
         style="color:#bebebe;display:inline;overflow:visible;visibility:visible;fill:#bebebe;fill-opacity:1;fill-rule:nonzero;stroke:none;stroke-width:2;marker:none" />
    </clipPath>
    <clipPath
       clipPathUnits="userSpaceOnUse"
       id="clipPath6254-1">
      <rect
         y="221.50153"
         x="26.998718"
         height="4.8783236"
         width="1.876245"
         id="rect6256-0"
         style="color:#bebebe;display:inline;overflow:visible;visibility:visible;fill:#bebebe;fill-opacity:1;stroke:none;stroke-width:2;marker:none" />
    </clipPath>
    <clipPath
       clipPathUnits="userSpaceOnUse"
       id="clipPath6262-7-6">
      <rect
         y="220.75"
         x="26.849981"
         height="6.3750005"
         width="3.8250003"
         id="rect6264-2-2"
         style="color:#bebebe;display:inline;overflow:visible;visibility:visible;fill:#bebebe;fill-opacity:1;fill-rule:nonzero;stroke:none;stroke-width:2;marker:none" />
    </clipPath>
    <clipPath
       clipPathUnits="userSpaceOnUse"
       id="clipPath6258-2-9">
      <rect
         y="221.28162"
         x="26.965673"
         height="5.3129687"
         width="2.8977275"
         id="rect6260-6-1"
         style="color:#bebebe;display:inline;overflow:visible;visibility:visible;fill:#bebebe;fill-opacity:1;fill-rule:nonzero;stroke:none;stroke-width:2;marker:none" />
    </clipPath>
    <clipPath
       clipPathUnits="userSpaceOnUse"
       id="clipPath6254-1-2">
      <rect
         y="221.50153"
         x="26.998718"
         height="4.8783236"
         width="1.876245"
         id="rect6256-0-7"
         style="color:#bebebe;display:inline;overflow:visible;visibility:visible;fill:#bebebe;fill-opacity:1;stroke:none;stroke-width:2;marker:none" />
    </clipPath>
    <clipPath
       clipPathUnits="userSpaceOnUse"
       id="clipPath6262-7-6-9">
      <rect
         y="220.75"
         x="26.849981"
         height="6.3750005"
         width="3.8250003"
         id="rect6264-2-2-3"
         style="color:#bebebe;display:inline;overflow:visible;visibility:visible;fill:#bebebe;fill-opacity:1;fill-rule:nonzero;stroke:none;stroke-width:2;marker:none" />
    </clipPath>
    <clipPath
       clipPathUnits="userSpaceOnUse"
       id="clipPath6258-2-9-1">
      <rect
         y="221.28162"
         x="26.965673"
         height="5.3129687"
         width="2.8977275"
         id="rect6260-6-1-9"
         style="color:#bebebe;display:inline;overflow:visible;visibility:visible;fill:#bebebe;fill-opacity:1;fill-rule:nonzero;stroke:none;stroke-width:2;marker:none" />
    </clipPath>
    <clipPath
       clipPathUnits="userSpaceOnUse"
       id="clipPath6254-1-2-4">
      <rect
         y="221.50153"
         x="26.998718"
         height="4.8783236"
         width="1.876245"
         id="rect6256-0-7-7"
         style="color:#bebebe;display:inline;overflow:visible;visibility:visible;fill:#bebebe;fill-opacity:1;stroke:none;stroke-width:2;marker:none" />
    </clipPath>
    <clipPath
       clipPathUnits="userSpaceOnUse"
       id="clipPath6254-1-2-4-6">
      <rect
         y="221.50153"
         x="26.998718"
         height="4.8783236"
         width="1.876245"
         id="rect6256-0-7-7-1"
         style="color:#bebebe;display:inline;overflow:visible;visibility:visible;fill:#bebebe;fill-opacity:1;stroke:none;stroke-width:2;marker:none" />
    </clipPath>
    <clipPath
       clipPathUnits="userSpaceOnUse"
       id="clipPath6258-2-9-1-5">
      <rect
         y="221.28162"
         x="26.965673"
         height="5.3129687"
         width="2.8977275"
         id="rect6260-6-1-9-5"
         style="color:#bebebe;display:inline;overflow:visible;visibility:visible;fill:#bebebe;fill-opacity:1;fill-rule:nonzero;stroke:none;stroke-width:2;marker:none" />
    </clipPath>
    <clipPath
       clipPathUnits="userSpaceOnUse"
       id="clipPath6262-7-6-9-4">
      <rect
         y="220.75"
         x="26.849981"
         height="6.3750005"
         width="3.8250003"
         id="rect6264-2-2-3-7"
         style="color:#bebebe;display:inline;overflow:visible;visibility:visible;fill:#bebebe;fill-opacity:1;fill-rule:nonzero;stroke:none;stroke-width:2;marker:none" />
    </clipPath>
    <clipPath
       clipPathUnits="userSpaceOnUse"
       id="clipPath6254-1-2-8">
      <rect
         y="221.50153"
         x="26.998718"
         height="4.8783236"
         width="1.876245"
         id="rect6256-0-7-8"
         style="color:#bebebe;display:inline;overflow:visible;visibility:visible;fill:#bebebe;fill-opacity:1;stroke:none;stroke-width:2;marker:none" />
    </clipPath>
    <clipPath
       clipPathUnits="userSpaceOnUse"
       id="clipPath6258-2-9-4">
      <rect
         y="221.28162"
         x="26.965673"
         height="5.3129687"
         width="2.8977275"
         id="rect6260-6-1-3"
         style="color:#bebebe;display:inline;overflow:visible;visibility:visible;fill:#bebebe;fill-opacity:1;fill-rule:nonzero;stroke:none;stroke-width:2;marker:none" />
    </clipPath>
    <clipPath
       clipPathUnits="userSpaceOnUse"
       id="clipPath6262-7-6-1">
      <rect
         y="220.75"
         x="26.849981"
         height="6.3750005"
         width="3.8250003"
         id="rect6264-2-2-4"
         style="color:#bebebe;display:inline;overflow:visible;visibility:visible;fill:#bebebe;fill-opacity:1;fill-rule:nonzero;stroke:none;stroke-width:2;marker:none" />
    </clipPath>
  </defs>
  <sodipodi:namedview
     id="base"
     pagecolor="#dddddd"
     bordercolor="#666666"
     borderopacity="1.0"
     inkscape:pageopacity="0"
     inkscape:pageshadow="2"
     inkscape:zoom="2.0000001"
     inkscape:cx="68.645194"
     inkscape:cy="193.18238"
     inkscape:document-units="mm"
     inkscape:current-layer="g11979"
     showgrid="false"
     inkscape:window-width="1920"
     inkscape:window-height="1016"
     inkscape:window-x="0"
     inkscape:window-y="27"
     inkscape:window-maximized="1"
     units="px"
     inkscape:snap-global="true"
     fit-margin-top="5"
     fit-margin-left="5"
     fit-margin-right="5"
     fit-margin-bottom="5"
     inkscape:snap-grids="true">
    <inkscape:grid
       type="xygrid"
       id="grid3470"
       originx="-180.98583"
       originy="-153.56708"
       empspacing="4" />
  </sodipodi:namedview>
  <metadata
     id="metadata2819">
    <rdf:RDF>
      <cc:Work
         rdf:about="">
        <dc:format>image/svg+xml</dc:format>
        <dc:type
           rdf:resource="http://purl.org/dc/dcmitype/StillImage" />
        <dc:title />
      </cc:Work>
    </rdf:RDF>
  </metadata>
  <g
     inkscape:label="Layer 1"
     inkscape:groupmode="layer"
     id="layer1"
     transform="translate(-180.98585,-64.05788)">
    <g
       id="g11979"
       transform="translate(-7.4083618,1.0583364)">
      <g
         id="g5237"
         transform="translate(-4.2333367,-1.0583323)">
        <g
           id="g4300"
           transform="translate(-3.2154311,0.29086048)">
          <path
             inkscape:connector-curvature="0"
             id="rect2278-9-8-37-1-9"
             d="m 208.73702,94.213321 c -0.47036,0.01241 -1.39641,0.514051 -2.1115,1.200959 -0.71638,0.688142 -1.20303,1.581425 -1.20303,1.904794 v 16.144236 c 0,0.30466 0.49615,1.09438 1.22628,1.69137 0.73012,0.59699 1.67006,1.01751 2.07998,1.01751 h 0.50023 40.88846 c 1.04591,0 1.87327,-0.82688 1.87327,-1.87276 V 96.084525 c 0,-1.045889 -0.82736,-1.871204 -1.87327,-1.871204 z"
             style="opacity:1;fill:none;fill-opacity:1;fill-rule:evenodd;stroke:none;stroke-width:1;stroke-linecap:square;stroke-linejoin:miter;stroke-miterlimit:4;stroke-dasharray:none;stroke-dashoffset:0;stroke-opacity:1" />
          <path
             inkscape:connector-curvature="0"
             id="rect2278-9-5-5-3"
             d="m 208.72875,94.214355 c -0.47263,0.01744 -1.39189,0.516615 -2.10323,1.199925 -0.71638,0.688142 -1.20303,1.581425 -1.20303,1.904794 v 16.144236 c 0,0.30466 0.49615,1.09438 1.22628,1.69137 0.73012,0.59699 1.67006,1.01751 2.07998,1.01751 0.007,-0.45466 2.6e-4,-20.996828 0,-21.957835 z"
             style="opacity:1;fill:none;fill-opacity:1;fill-rule:evenodd;stroke:none;stroke-width:3.44200492;stroke-linecap:square;stroke-linejoin:miter;stroke-miterlimit:4;stroke-dasharray:none;stroke-dashoffset:0;stroke-opacity:1" />
          <path
             sodipodi:nodetypes="cccc"
             inkscape:connector-curvature="0"
             id="path2039-7-92-9-6"
             d="m 207.3577,116.79202 c 1.2e-4,11.19473 9.07534,21.16723 20.27008,21.16708 11.18131,-7.9e-4 20.25011,-9.98578 20.26811,-21.16708 -13.5105,-0.14753 -27.02899,0.25034 -40.53819,0 z"
             style="opacity:1;fill:#2b2e3c;fill-opacity:1;fill-rule:evenodd;stroke:none;stroke-width:0.83340949;stroke-linecap:square;stroke-linejoin:miter;stroke-miterlimit:4;stroke-dasharray:none;stroke-dashoffset:0;stroke-opacity:1" />
          <path
             id="path9205-9-6-2"
             d="m 132.11188,51.311696 c -3.34507,2.324589 -8,8.000001 -8,12.000001 l 20,5.657546 c 1.67696,-0.641915 3.96569,-1.000545 5.96429,-1.657546 z"
             style="opacity:1;fill:#2b2e3c;fill-opacity:1;fill-rule:evenodd;stroke:none;stroke-width:7.55905485;stroke-linecap:round;stroke-linejoin:miter;stroke-miterlimit:4;stroke-dasharray:none;stroke-dashoffset:0;stroke-opacity:1"
             inkscape:connector-curvature="0"
             sodipodi:nodetypes="ccccc"
             transform="matrix(0.26458333,0,0,0.26458333,180.98585,64.05788)" />
          <path
             id="path9205-2-7-7-6"
             d="m 136.18805,23.949711 17.58008,41.667969 c 0.77148,-0.21525 1.55571,-0.417787 2.34375,-0.615234 l -4,-33.69075 c -2.27246,-3.936011 -8.38363,-7.686336 -12,-7.992844 -1.31111,-0.118008 -2.83211,0.13303 -3.92383,0.630859 z"
             style="opacity:1;fill:#2b2e3c;fill-opacity:1;fill-rule:evenodd;stroke:none;stroke-width:7.06252146;stroke-linecap:round;stroke-linejoin:miter;stroke-miterlimit:4;stroke-dasharray:none;stroke-dashoffset:0;stroke-opacity:1"
             inkscape:connector-curvature="0"
             sodipodi:nodetypes="cccccc"
             transform="matrix(0.26458333,0,0,0.26458333,180.98585,64.05788)" />
        </g>
        <path
           style="opacity:1;fill:#2b2e3c;fill-opacity:1;fill-rule:evenodd;stroke:none;stroke-width:2.11666656;stroke-linecap:butt;stroke-linejoin:bevel;stroke-miterlimit:4;stroke-dasharray:none;stroke-dashoffset:6.99212599;stroke-opacity:1"
           d="M 246.59169,96.974959 H 207.43335"
           id="path5038"
           inkscape:connector-curvature="0" />
        <path
           inkscape:connector-curvature="0"
           style="opacity:1;fill:#2b2e3c;fill-opacity:1;fill-rule:evenodd;stroke:none;stroke-width:2.11666656;stroke-linecap:butt;stroke-linejoin:bevel;stroke-miterlimit:4;stroke-dasharray:none;stroke-dashoffset:6.99212599;stroke-opacity:1"
           d="m 206.37499,94.858068 c -2.34527,0 -4.23333,1.888064 -4.23333,4.233333 V 111.7914 c 0,2.34527 1.88806,4.23334 4.23333,4.23334 h 40.21667 c 1.17264,0 2.11667,-0.94403 2.11667,-2.11667 V 96.974735 c 0,-1.172636 -0.94403,-2.116667 -2.11667,-2.116667 z m -0.76946,2.116148 h 41.04659 c 1.41145,0 1.41145,2.117185 0,2.117185 h -40.27713 l -1.05833,1.058339 c -1.08101,0.91073 -2.44507,-0.713822 -1.36116,-1.621097 z m -0.90899,13.492714 c 0.2046,0.0139 0.41743,0.0954 0.62012,0.26614 l 1.05833,1.05833 h 40.27713 c 1.41145,0 1.41145,2.11718 0,2.11718 h -41.04659 l -1.65003,-1.55442 c -0.88067,-0.73716 -0.14555,-1.94763 0.74104,-1.88723 z"
           id="rect5016" />
        <path
           style="opacity:1;fill:#2b2e3c;fill-opacity:1;fill-rule:evenodd;stroke:none;stroke-width:3.99999976;stroke-linecap:butt;stroke-linejoin:bevel;stroke-miterlimit:4;stroke-dasharray:none;stroke-dashoffset:6.99212599;stroke-opacity:1"
           d="m 164.40234,68.701172 c -6.83248,10e-7 -13.45157,0.906209 -19.75195,2.591797 1.11939,3.021208 2.58667,7.128976 4.35547,12.589843 3.10233,9.577947 6.02558,20.289138 6.79492,28.527348 h 29.67774 c -0.74744,-7.50588 -3.43163,-17.978806 -6.95313,-27.242191 -2.0643,-5.430236 -4.33271,-10.363328 -6.41406,-13.833985 -0.54213,-0.903991 -1.07251,-1.701164 -1.57227,-2.382812 -2.02498,-0.161335 -4.07017,-0.25 -6.13672,-0.25 z m 11.28907,0.832031 c 2.23011,3.770209 4.49933,8.745757 6.57617,14.208985 3.62712,9.541309 6.66232,20.400392 7.47265,28.667972 h 43.63868 C 222.70167,89.829328 201.26967,73.330133 175.69141,69.533203 Z m -34.86719,2.896485 c -20.06498,6.520402 -36.4829,21.12536 -45.398439,39.980472 h 56.554689 c -0.87808,-7.49062 -3.80508,-18.118515 -6.77735,-27.294926 -1.57848,-4.873273 -3.1109,-9.205223 -4.3789,-12.685546 z"
           transform="matrix(0.26458333,0,0,0.26458333,180.98585,64.05788)"
           id="path5174"
           inkscape:connector-curvature="0" />
      </g>
      <g
         id="g3702-9-1-3-8-2"
         transform="matrix(1.90355,0,0,1.9227418,291.39582,170.60862)"
         inkscape:export-xdpi="81.917801"
         inkscape:export-ydpi="81.917801"
         style="stroke-width:0.77684349">
        <path
           style="color:#000000;font-style:normal;font-variant:normal;font-weight:normal;font-stretch:normal;font-size:medium;line-height:normal;font-family:sans-serif;font-variant-ligatures:normal;font-variant-position:normal;font-variant-caps:normal;font-variant-numeric:normal;font-variant-alternates:normal;font-feature-settings:normal;text-indent:0;text-align:start;text-decoration:none;text-decoration-line:none;text-decoration-style:solid;text-decoration-color:#000000;letter-spacing:normal;word-spacing:normal;text-transform:none;writing-mode:lr-tb;direction:ltr;text-orientation:mixed;dominant-baseline:auto;baseline-shift:baseline;text-anchor:start;white-space:normal;shape-padding:0;clip-rule:nonzero;display:inline;overflow:visible;visibility:visible;opacity:1;isolation:auto;mix-blend-mode:normal;color-interpolation:sRGB;color-interpolation-filters:linearRGB;solid-color:#000000;solid-opacity:1;vector-effect:none;fill:#2b2e3c;fill-opacity:1;fill-rule:evenodd;stroke:none;stroke-width:1;stroke-linecap:round;stroke-linejoin:round;stroke-miterlimit:4;stroke-dasharray:none;stroke-dashoffset:0;stroke-opacity:1;color-rendering:auto;image-rendering:auto;shape-rendering:auto;text-rendering:auto;enable-background:accumulate"
           d="m 184.20311,44.464844 c 4.26791,-2.054637 9.00174,-4.777726 15.27344,-7.863282 2.72168,-1.339005 5.56784,-2.609252 8.45313,-3.707031 v 0 c -2.34133,3.248206 -3.73828,7.220153 -3.73828,11.517578 0,4.494734 1.52824,8.631215 4.06836,11.957032 -9.74532,-3.3318 -18.90422,-8.676529 -24.05665,-11.904297 z m 23.99024,-0.05273 c 0,-6.33175 3.70731,-11.757346 9.07031,-14.269531 v 0 c 2.21207,-0.430099 4.39923,-0.679687 6.52344,-0.679687 2.29667,0 4.64324,0.2732 7,0.742187 5.29209,2.538978 8.94141,7.927021 8.94141,14.207031 0,0.756848 -0.0557,1.49911 -0.15821,2.226563 1.27533,-0.988589 2.66265,-1.832907 4.14649,-2.509766 -0.0599,-4.152931 -1.41283,-7.994992 -3.66797,-11.15625 v 0 c 2.59779,1.000866 5.14782,2.135772 7.58398,3.345703 6.10006,3.029621 10.67184,5.903359 14.71289,8.175782 1.3133,0.689896 2.5501,1.505539 3.68164,2.447265 0.55303,-0.274717 0.79469,-0.371112 1.25,-0.560547 1.58538,-0.656537 1.66299,-2.895164 0.12696,-3.662109 -3.69728,-1.852125 -10.28958,-6.168687 -18.01563,-10.005859 -7.72604,-3.837173 -16.68124,-7.267578 -25.60156,-7.267579 h 1e-5 c -8.95164,0 -18.09847,3.637443 -26.05273,7.550782 -7.95429,3.913338 -14.86669,8.179103 -18.4629,9.52539 -1.54194,0.571031 -1.77419,2.676292 -0.39453,3.576172 6.42906,4.208766 27.09398,17.273438 44.91016,17.273438 1.128,0 2.25532,-0.06608 3.38086,-0.173828 -0.0296,-0.226741 -0.0547,-0.453393 -0.0547,-0.679688 0,-1.147189 0.36862,-2.324874 1.21875,-3.28125 0.0839,-0.09434 0.17596,-0.183933 0.26953,-0.271484 -1.62015,0.241871 -3.22979,0.388672 -4.81445,0.388672 -2.06798,0 -4.19777,-0.224478 -6.34766,-0.589844 -5.45855,-2.474532 -9.24609,-7.950306 -9.24609,-14.351563 z m 22.59767,-14.207031 c 0,0 -0.004,0 0,0 z"
           transform="matrix(0.13899469,0,0,0.13760731,-54.152068,-53.208562)"
           id="path3626-7-0-5-0-0"
           inkscape:connector-curvature="0"
           sodipodi:nodetypes="ccccsccsccscsccccsccccssccccscsccscscc" />
        <path
           style="opacity:1;fill:#2b2e3c;fill-opacity:1;fill-rule:evenodd;stroke:none;stroke-width:0.36395529;stroke-linecap:round;stroke-linejoin:round;stroke-miterlimit:4;stroke-dasharray:none;stroke-dashoffset:0;stroke-opacity:1"
           d="m -21.960734,-47.128124 a 1.0700164,1.0700164 0 0 1 -1.070016,1.070016 1.0700164,1.0700164 0 0 1 -1.070017,-1.070016 1.0700164,1.0700164 0 0 1 1.070017,-1.070017 1.0700164,1.0700164 0 0 1 1.070016,1.070017 z"
           id="path3643-8-7-0-4-2"
           inkscape:connector-curvature="0" />
      </g>
      <path
         style="opacity:1;fill:none;fill-opacity:1;fill-rule:evenodd;stroke:#2b2e3c;stroke-width:1.05833328;stroke-linecap:round;stroke-linejoin:round;stroke-miterlimit:4;stroke-dasharray:none;stroke-dashoffset:0;stroke-opacity:1"
         d="m 254.97882,81.605349 v -2.08089"
         id="path4425-1-8-9"
         inkscape:connector-curvature="0"
         sodipodi:nodetypes="cc"
         inkscape:export-xdpi="182.84366"
         inkscape:export-ydpi="182.84366" />
      <path
         style="opacity:1;fill:none;fill-opacity:1;fill-rule:evenodd;stroke:#2b2e3c;stroke-width:1.05833328;stroke-linecap:round;stroke-linejoin:round;stroke-miterlimit:4;stroke-dasharray:none;stroke-dashoffset:0;stroke-opacity:1"
         d="m 254.97882,90.615669 v -2.08088"
         id="path4425-3-7-7-2"
         inkscape:connector-curvature="0"
         sodipodi:nodetypes="cc"
         inkscape:export-xdpi="182.84366"
         inkscape:export-ydpi="182.84366" />
      <path
         style="opacity:1;fill:none;fill-opacity:1;fill-rule:evenodd;stroke:#2b2e3c;stroke-width:1.05833328;stroke-linecap:round;stroke-linejoin:round;stroke-miterlimit:4;stroke-dasharray:none;stroke-dashoffset:0;stroke-opacity:1"
         d="m 258.4733,84.815204 h 2.0809"
         id="path4425-37-5-9-2"
         inkscape:connector-curvature="0"
         sodipodi:nodetypes="cc"
         inkscape:export-xdpi="182.84366"
         inkscape:export-ydpi="182.84366" />
      <path
         style="opacity:1;fill:none;fill-opacity:1;fill-rule:evenodd;stroke:#2b2e3c;stroke-width:1.05833328;stroke-linecap:round;stroke-linejoin:round;stroke-miterlimit:4;stroke-dasharray:none;stroke-dashoffset:0;stroke-opacity:1"
         d="m 249.463,84.815204 h 2.0808"
         id="path4425-3-3-1-0-8"
         inkscape:connector-curvature="0"
         sodipodi:nodetypes="cc"
         inkscape:export-xdpi="182.84366"
         inkscape:export-ydpi="182.84366" />
      <circle
         style="opacity:1;fill:#2b2e3c;fill-opacity:1;fill-rule:evenodd;stroke:none;stroke-width:1.05833328;stroke-linecap:butt;stroke-linejoin:bevel;stroke-miterlimit:4;stroke-dasharray:none;stroke-dashoffset:0;stroke-opacity:1"
         id="path955"
         cx="254.97882"
         cy="84.815201"
         r="1.3229166" />
      <circle
         style="opacity:1;fill:none;fill-opacity:1;fill-rule:evenodd;stroke:#2b2e3c;stroke-width:1.05833328;stroke-linecap:butt;stroke-linejoin:bevel;stroke-miterlimit:4;stroke-dasharray:none;stroke-dashoffset:0;stroke-opacity:1"
         id="path957"
         cx="254.97882"
         cy="84.815201"
         r="4.2333331" />
    </g>
  </g>
</svg>
